<?xml version="1.0" standalone="no"?>
<!DOCTYPE svg PUBLIC "-//W3C//DTD SVG 20010904//EN"
 "http://www.w3.org/TR/2001/REC-SVG-20010904/DTD/svg10.dtd">
<svg version="1.0" xmlns="http://www.w3.org/2000/svg"
 width="1080.000000pt" height="1920.000000pt" viewBox="0 0 1080.000000 1920.000000"
 preserveAspectRatio="xMidYMid meet">

<g transform="translate(0.000000,1920.000000) scale(0.100000,-0.100000)"
fill="#000000" stroke="none">
<path d="M5210 11175 l0 -164 608 -3 607 -3 60 -24 c122 -49 191 -118 234
-235 l26 -71 3 -962 3 -963 -136 0 -135 0 0 493 c0 270 -5 546 -10 612 -23
279 -108 475 -279 645 -132 131 -296 216 -514 268 -100 23 -132 26 -307 27
-222 0 -325 -15 -500 -72 -81 -26 -275 -116 -299 -139 -4 -3 -20 -104 -112
-694 -33 -212 -75 -479 -93 -595 -19 -115 -56 -342 -82 -503 l-47 -294 -31 6
c-83 17 -157 107 -176 216 -16 88 -12 125 85 725 8 50 33 205 55 345 22 140
64 410 94 600 29 190 57 366 60 393 l7 47 -183 -2 -183 -3 -7 -45 c-3 -25 -16
-103 -27 -175 -11 -71 -50 -323 -86 -560 -36 -236 -76 -500 -90 -585 -13 -85
-31 -202 -39 -260 -9 -58 -22 -150 -31 -205 -20 -132 -20 -343 0 -420 55 -213
216 -359 437 -395 119 -19 268 24 356 104 46 42 105 150 120 221 6 28 27 151
46 275 59 376 167 1076 190 1235 l22 150 34 -3 c97 -10 229 -91 299 -185 147
-195 190 -529 110 -856 -46 -187 -133 -344 -259 -472 -70 -71 -101 -94 -177
-132 -50 -25 -116 -51 -146 -57 -53 -12 -54 -13 -81 -76 -15 -35 -47 -85 -69
-110 -47 -53 -143 -119 -187 -129 -53 -12 -32 -23 56 -30 243 -21 522 49 723
179 95 61 246 208 311 302 262 379 314 928 125 1322 -24 51 -59 114 -77 140
-114 167 -300 293 -508 346 -105 26 -105 29 13 65 162 50 382 48 564 -5 233
-67 405 -227 477 -445 49 -148 51 -177 51 -901 l0 -678 493 0 492 0 0 1124 c0
1274 3 1220 -77 1385 -104 216 -303 342 -603 381 -41 5 -330 10 -642 10 l-568
0 0 -165z"/>
</g>
</svg>
