<svg xmlns="http://www.w3.org/2000/svg" width="751" height="651" viewBox="0 0 751 651">
<g>
<path d="M 106.39 615.50 C106.46,589.68 106.46,589.65 106.75,611.24 L 107.04 632.98 L 364.00 632.97 L 620.96 632.97 L 621.25 611.23 C621.54,589.66 621.54,589.69 621.61,615.50 C621.65,629.80 621.50,640.04 621.28,638.25 C620.84,634.75 620.21,634.51 615.26,635.93 C613.26,636.50 611.81,636.50 611.45,635.92 C611.09,635.34 514.68,634.99 359.00,635.01 L 107.12 635.05 L 106.72 638.27 C106.50,640.05 106.35,629.80 106.39,615.50 ZM 315.00 630.22 C310.92,628.99 309.75,623.44 312.96,620.54 C317.21,616.69 323.68,622.02 321.25,627.36 C320.12,629.82 317.56,631.00 315.00,630.22 ZM 319.39 626.75 C320.90,624.35 319.00,621.50 315.89,621.50 C314.16,621.50 313.41,622.13 313.17,623.81 C312.52,628.43 317.00,630.55 319.39,626.75 ZM 383.72 629.87 C382.78,629.33 381.97,628.14 381.94,627.20 C381.89,625.96 381.63,626.10 380.97,627.75 C379.39,631.67 374.00,630.01 374.00,625.61 C374.00,623.66 373.97,623.66 372.61,625.53 C371.39,627.18 371.43,627.60 372.86,628.68 C374.27,629.76 373.97,629.94 370.75,629.97 C368.69,629.99 367.00,629.69 367.00,629.30 C367.00,628.92 368.21,627.34 369.69,625.80 C371.72,623.68 372.10,622.70 371.24,621.84 C370.37,620.97 369.71,621.00 368.54,621.96 C367.26,623.02 367.00,622.98 367.00,621.69 C367.00,619.23 371.10,618.42 372.67,620.57 C373.95,622.32 374.05,622.32 375.36,620.53 C377.01,618.26 379.72,619.06 380.86,622.15 L 381.67 624.35 L 382.24 622.18 C383.67,616.71 389.00,619.00 389.00,625.09 C389.00,629.43 386.69,631.52 383.72,629.87 ZM 379.80 624.09 C379.63,622.59 378.87,621.50 378.00,621.50 C376.39,621.50 375.46,625.16 376.43,627.69 C377.38,630.16 380.16,627.19 379.80,624.09 ZM 387.50 627.00 C388.33,624.39 387.22,621.00 385.55,621.00 C383.78,621.00 382.86,624.87 384.09,627.16 C385.37,629.56 386.71,629.50 387.50,627.00 ZM 413.57 629.43 C411.58,627.44 411.53,621.63 413.49,620.01 C415.44,618.39 418.05,619.46 418.76,622.18 L 419.33 624.35 L 420.14 622.15 C421.97,617.19 427.00,618.86 427.00,624.43 C427.00,630.82 422.19,633.13 420.04,627.77 C419.37,626.10 419.11,625.95 419.06,627.21 C418.96,629.92 415.47,631.32 413.57,629.43 ZM 417.45 623.66 C416.47,619.76 414.00,620.25 414.00,624.33 C414.00,628.38 414.92,629.51 416.75,627.68 C417.62,626.80 417.88,625.36 417.45,623.66 ZM 424.81 624.67 C425.04,621.94 424.74,621.00 423.63,621.00 C421.79,621.00 420.64,624.29 421.52,627.06 C422.51,630.20 424.46,628.79 424.81,624.67 ZM 324.53 627.05 C322.41,622.97 322.65,620.99 324.90,623.92 L 326.76 626.33 L 327.45 624.17 C328.01,622.40 330.00,621.00 330.00,622.38 C330.00,623.29 326.93,630.00 326.51,630.00 C326.26,630.00 325.36,628.67 324.53,627.05 ZM 331.39 628.57 C330.17,625.41 331.44,622.51 334.18,622.19 C337.43,621.82 339.17,624.42 337.91,627.75 C336.94,630.33 332.29,630.92 331.39,628.57 ZM 336.50 628.00 C336.84,627.45 336.16,627.00 335.00,627.00 C333.84,627.00 333.16,627.45 333.50,628.00 C333.84,628.55 334.51,629.00 335.00,629.00 C335.49,629.00 336.16,628.55 336.50,628.00 ZM 335.73 624.40 C335.40,624.06 334.53,624.03 333.81,624.32 C333.01,624.64 333.25,624.87 334.42,624.92 C335.47,624.96 336.06,624.73 335.73,624.40 ZM 339.95 629.63 C338.82,628.47 340.23,622.00 341.61,622.00 C343.20,622.00 343.42,623.16 342.08,624.55 C341.58,625.07 341.02,626.56 340.83,627.84 C340.65,629.13 340.25,629.94 339.95,629.63 ZM 344.67 629.33 C343.58,628.25 343.91,624.49 345.20,623.20 C345.86,622.54 347.66,622.00 349.20,622.00 C351.80,622.00 352.00,622.29 352.00,626.00 C352.00,629.87 351.89,630.00 348.67,630.00 C346.83,630.00 345.03,629.70 344.67,629.33 ZM 349.82 626.17 C350.06,624.54 349.63,624.00 348.07,624.00 C346.73,624.00 346.00,624.65 346.00,625.83 C346.00,629.63 349.27,629.92 349.82,626.17 ZM 353.00 625.06 C353.00,622.34 353.45,619.84 354.00,619.50 C354.62,619.12 355.00,620.99 355.00,624.44 C355.00,627.50 354.55,630.00 354.00,630.00 C353.45,630.00 353.00,627.78 353.00,625.06 ZM 356.00 625.00 C356.00,622.25 356.45,620.00 357.00,620.00 C357.55,620.00 358.00,622.25 358.00,625.00 C358.00,627.75 357.55,630.00 357.00,630.00 C356.45,630.00 356.00,627.75 356.00,625.00 ZM 360.00 628.94 C360.00,628.36 360.45,628.16 361.00,628.50 C361.55,628.84 362.00,629.32 362.00,629.56 C362.00,629.80 361.55,630.00 361.00,630.00 C360.45,630.00 360.00,629.52 360.00,628.94 ZM 393.99 628.51 C394.73,627.62 394.96,625.96 394.55,624.34 C393.94,621.93 394.05,621.79 395.51,623.01 C396.90,624.16 397.29,624.15 398.02,622.96 C398.50,622.19 399.20,621.87 399.59,622.25 C399.97,622.64 399.72,623.64 399.02,624.48 C398.00,625.70 398.00,626.30 399.02,627.52 C400.62,629.46 399.53,630.68 397.61,629.09 C396.64,628.28 395.97,628.24 395.53,628.95 C395.17,629.53 394.40,630.00 393.82,630.00 C393.14,630.00 393.21,629.46 393.99,628.51 ZM 406.97 626.38 C409.17,623.88 409.83,622.43 409.12,621.72 C408.41,621.01 407.60,621.09 406.52,621.98 C404.48,623.68 403.33,622.51 405.02,620.48 C405.74,619.61 407.26,619.04 408.41,619.20 C411.13,619.59 411.72,623.55 409.43,626.08 C407.84,627.83 407.83,628.00 409.35,628.00 C410.26,628.00 411.00,628.45 411.00,629.00 C411.00,629.55 409.38,630.00 407.40,630.00 L 403.79 630.00 L 406.97 626.38 ZM 360.00 622.94 C360.00,622.36 360.45,622.16 361.00,622.50 C361.55,622.84 362.00,623.32 362.00,623.56 C362.00,623.80 361.55,624.00 361.00,624.00 C360.45,624.00 360.00,623.52 360.00,622.94 ZM 598.22 613.62 C598.00,610.76 597.96,610.75 593.00,611.41 C589.82,611.83 588.00,611.70 588.00,611.04 C588.00,609.65 253.38,609.58 252.52,610.97 C252.17,611.53 249.99,611.69 247.46,611.34 C243.29,610.77 243.00,610.88 243.00,613.03 C243.00,614.30 242.73,615.06 242.39,614.72 C242.05,614.39 241.72,608.12 241.64,600.81 L 241.50 587.50 L 174.05 587.24 C121.62,587.04 106.43,586.71 105.82,585.74 C105.39,585.06 105.02,574.49 105.02,562.25 L 105.00 540.00 L 77.50 540.00 C59.83,540.00 50.00,539.64 50.00,539.00 C50.00,538.45 51.12,538.00 52.49,538.00 L 54.97 538.00 L 54.97 325.07 L 54.97 112.13 L 52.24 111.71 C50.73,111.49 61.99,111.23 77.25,111.15 L 105.00 111.00 L 105.00 91.06 L 105.00 71.12 L 116.75 70.81 C123.21,70.64 179.69,70.50 242.25,70.50 L 356.00 70.50 L 356.00 65.63 C356.00,61.07 355.86,60.81 353.75,61.38 C348.33,62.87 344.22,63.16 343.57,62.11 C343.14,61.42 339.13,61.00 332.94,61.00 C326.98,61.00 323.00,60.60 323.00,60.00 C323.00,59.40 327.17,59.00 333.50,59.00 C340.63,59.00 344.00,58.64 344.00,57.87 C344.00,56.78 348.22,57.10 353.75,58.62 C355.74,59.16 356.00,58.87 356.00,56.03 C356.00,53.92 356.42,52.97 357.25,53.25 C358.08,53.52 358.60,56.40 358.79,61.83 L 359.08 70.00 L 392.79 70.07 C411.33,70.11 448.44,70.22 475.25,70.32 C502.06,70.42 524.00,70.28 523.99,70.00 C523.99,69.72 522.88,67.70 521.53,65.50 C517.77,59.40 518.04,59.00 526.00,59.00 C529.85,59.00 533.00,59.40 533.00,59.90 C533.00,60.39 531.88,62.75 530.51,65.15 C529.14,67.54 528.02,69.72 528.01,70.00 C528.01,70.28 548.89,70.50 574.42,70.50 C599.95,70.50 621.10,70.76 621.42,71.08 C621.74,71.40 622.01,105.10 622.03,145.97 C622.04,186.84 622.29,220.04 622.59,219.75 C622.88,219.45 625.71,215.00 628.87,209.85 L 634.62 200.50 L 639.56 200.00 L 644.50 199.50 L 644.80 194.24 L 645.11 188.98 L 695.80 189.24 L 746.50 189.50 L 746.78 200.25 L 747.07 211.00 L 696.03 211.00 L 645.00 211.00 L 645.00 205.95 L 645.00 200.89 L 640.26 201.20 L 635.52 201.50 L 629.01 212.00 L 622.50 222.50 L 622.50 275.33 L 622.50 328.16 L 636.92 328.33 C647.43,328.45 651.44,328.84 651.75,329.75 C652.03,330.60 650.98,331.00 648.48,331.00 C645.62,331.00 644.92,331.34 645.36,332.49 C646.70,335.99 647.24,344.00 646.13,344.00 C645.37,344.00 645.00,346.98 645.00,353.00 C645.00,358.33 644.59,362.00 644.00,362.00 C643.41,362.00 643.00,358.33 643.00,353.00 C643.00,347.07 642.62,344.00 641.89,344.00 C640.82,344.00 640.91,342.86 642.71,333.75 L 643.25 331.00 L 632.63 331.00 L 622.01 331.00 L 621.75 458.75 L 621.50 586.50 L 610.28 586.78 L 599.05 587.07 L 598.75 601.78 C598.58,609.88 598.34,615.20 598.22,613.62 ZM 247.93 607.88 C250.31,607.04 251.44,607.04 252.28,607.88 C253.08,608.68 267.66,609.00 303.20,609.00 L 353.00 609.00 L 353.00 603.61 C353.00,598.64 353.20,598.17 355.60,597.57 C357.07,597.19 358.80,597.42 359.60,598.08 C362.67,600.63 360.08,607.01 356.51,605.64 C355.48,605.25 355.00,605.68 355.00,607.03 C355.00,608.98 356.28,609.00 471.30,609.00 C557.28,609.00 587.90,608.70 588.74,607.86 C589.60,607.00 590.66,607.03 592.98,607.99 C594.67,608.69 596.39,608.94 596.78,608.55 C597.18,608.15 597.50,603.14 597.50,597.41 L 597.50 587.00 L 420.25 587.00 L 243.00 587.00 L 243.00 598.00 C243.00,604.05 243.38,609.00 243.85,609.00 C244.32,609.00 246.15,608.49 247.93,607.88 ZM 359.27 602.75 C359.91,600.91 358.98,599.00 357.45,599.00 C355.70,599.00 354.68,600.73 355.38,602.55 C356.06,604.33 358.67,604.46 359.27,602.75 ZM 241.99 570.75 C241.95,563.46 241.66,553.62 241.34,548.88 L 240.76 540.26 L 226.13 539.75 C208.65,539.13 201.22,537.10 186.38,528.88 C164.90,516.98 148.85,496.36 142.16,472.07 L 139.52 462.50 L 139.23 347.22 L 138.94 231.95 L 127.72 232.43 C121.55,232.70 114.59,232.92 112.25,232.92 L 108.00 232.92 L 108.00 280.26 C108.00,315.75 108.30,327.90 109.20,328.80 C110.13,329.73 110.13,330.00 109.20,330.00 C108.27,330.00 108.00,353.78 108.00,434.00 L 108.00 538.00 L 153.56 538.00 C179.77,538.00 198.89,538.38 198.57,538.89 C198.27,539.37 190.03,539.79 180.26,539.82 C170.49,539.85 150.24,539.90 135.25,539.94 L 108.00 540.00 L 108.00 562.00 L 108.00 584.00 L 175.03 584.00 L 242.07 584.00 L 241.99 570.75 ZM 597.00 564.00 C597.00,551.33 597.37,544.00 598.00,544.00 C598.63,544.00 599.00,551.33 599.00,564.00 L 599.00 584.00 L 609.50 584.00 L 620.00 584.00 L 620.00 457.50 L 620.00 331.00 L 614.42 331.00 C607.07,331.00 607.42,328.63 614.83,328.20 L 620.00 327.90 L 620.00 277.75 L 620.00 227.61 L 617.22 232.05 C609.77,244.00 606.00,250.77 606.00,252.23 C606.00,253.12 604.82,255.24 603.39,256.95 C601.95,258.66 600.39,261.73 599.91,263.78 C599.44,265.82 599.04,328.81 599.02,403.75 L 599.00 540.00 L 593.75 540.02 C590.86,540.03 536.86,540.04 473.75,540.03 L 359.00 540.01 L 359.00 552.09 C359.00,561.10 358.69,564.06 357.79,563.76 C357.12,563.54 356.56,562.04 356.54,560.43 C356.52,558.82 356.01,557.59 355.42,557.69 C348.39,558.95 344.00,559.12 344.00,558.13 C344.00,557.36 340.37,557.00 332.50,557.00 C325.50,557.00 321.00,556.61 321.00,556.00 C321.00,555.39 325.43,555.00 332.30,555.00 C339.40,555.00 344.02,554.58 344.74,553.86 C345.58,553.02 347.06,553.03 350.56,553.91 C353.13,554.56 355.38,554.95 355.54,554.79 C355.71,554.62 355.96,551.34 356.10,547.49 L 356.35 540.50 L 299.68 540.28 L 243.00 540.06 L 243.00 562.03 L 243.00 584.00 L 420.00 584.00 L 597.00 584.00 L 597.00 564.00 ZM 105.00 434.50 L 105.00 331.00 L 96.88 331.00 L 88.75 331.00 L 89.29 333.75 C91.09,342.86 91.18,344.00 90.11,344.00 C89.38,344.00 89.00,346.92 89.00,352.44 C89.00,357.08 88.55,361.16 88.00,361.50 C87.36,361.89 87.00,359.03 87.00,353.62 C87.00,348.41 86.57,344.85 85.88,344.42 C84.74,343.72 85.16,336.29 86.54,332.75 C87.11,331.28 86.63,331.00 83.52,331.00 C81.02,331.00 79.97,330.60 80.25,329.75 C80.54,328.86 84.19,328.42 92.83,328.22 L 105.00 327.94 L 105.00 280.34 L 105.00 232.74 L 101.06 233.37 C98.79,233.74 96.86,233.58 96.50,233.00 C96.14,232.41 89.01,231.91 79.19,231.78 L 62.50 231.55 L 78.93 231.25 C87.96,231.08 95.87,230.52 96.51,229.99 C97.24,229.39 98.90,229.40 101.07,230.02 C102.95,230.56 104.60,231.00 104.74,231.00 C104.88,231.00 105.00,204.22 105.00,171.49 L 105.00 111.98 L 81.00 112.11 C63.81,112.20 57.00,112.56 57.00,113.38 C57.00,114.00 57.42,115.97 57.93,117.74 C58.50,119.75 58.50,121.19 57.91,121.56 C57.33,121.92 56.99,201.01 57.02,330.07 L 57.06 538.00 L 81.03 538.00 L 105.00 538.00 L 105.00 434.50 ZM 241.37 527.53 L 241.50 517.57 L 234.17 516.34 C208.72,512.06 189.77,498.39 178.97,476.50 C170.30,458.93 169.98,449.90 176.41,404.50 C178.90,386.90 183.63,353.60 186.92,330.50 C190.21,307.40 196.31,264.42 200.47,235.00 C204.64,205.57 208.28,180.33 208.57,178.91 C209.04,176.58 206.80,174.21 186.89,155.91 C174.68,144.68 159.70,130.89 153.59,125.27 C147.49,119.64 142.21,115.02 141.85,115.02 C140.81,114.99 140.98,447.41 142.02,457.64 C143.57,472.68 149.25,488.10 158.02,501.03 C160.09,504.07 165.89,510.48 170.93,515.27 C187.31,530.86 206.60,538.00 231.37,537.64 L 241.24 537.50 L 241.37 527.53 ZM 356.40 531.59 C356.46,527.83 356.96,525.52 357.75,525.25 C358.67,524.95 359.00,526.59 359.00,531.42 L 359.00 538.00 L 477.50 538.00 C542.67,538.00 596.00,537.82 596.00,537.59 C596.00,537.37 592.57,531.63 588.37,524.84 C584.17,518.05 578.05,508.14 574.78,502.81 L 568.81 493.13 L 569.94 483.81 C570.57,478.69 571.29,473.49 571.56,472.25 C572.02,470.07 571.80,470.00 564.41,470.00 C557.58,470.00 556.85,470.18 557.40,471.75 C557.98,473.42 557.94,473.42 556.64,471.75 C555.39,470.14 552.22,469.99 517.89,469.87 C479.30,469.73 412.91,468.52 425.75,468.19 C429.74,468.08 433.00,467.71 433.00,467.36 C433.00,467.01 431.65,464.53 430.00,461.85 C428.35,459.16 427.00,456.75 427.00,456.48 C427.00,456.22 429.28,456.00 432.06,456.00 C434.85,456.00 436.87,456.41 436.55,456.91 C436.24,457.41 434.64,457.61 433.00,457.35 C429.41,456.79 429.28,457.66 432.10,463.19 C434.38,467.66 434.42,467.64 438.00,460.87 C439.05,458.88 439.63,456.97 439.29,456.62 C438.95,456.28 439.12,456.00 439.67,456.00 C441.90,456.00 441.72,457.42 438.93,461.96 C437.32,464.58 436.00,467.01 436.00,467.36 C436.00,467.71 444.34,468.00 454.53,468.00 L 473.06 468.00 L 472.74 367.25 L 472.41 266.50 L 470.12 258.52 C468.86,254.13 466.28,247.36 464.39,243.47 C460.55,235.59 451.11,222.64 448.92,222.24 C448.14,222.10 446.48,223.56 445.24,225.49 C444.00,227.42 442.52,229.00 441.94,229.00 C441.37,229.00 437.29,232.71 432.87,237.25 C423.11,247.27 423.60,245.55 433.69,234.37 C438.75,228.76 440.83,225.73 440.40,224.61 C439.97,223.48 440.21,223.14 441.17,223.51 C443.25,224.31 446.44,221.59 445.69,219.64 C445.35,218.74 441.98,216.01 438.21,213.57 C415.22,198.69 388.88,196.93 356.56,208.10 C344.80,212.17 338.12,215.17 330.64,219.74 L 324.50 223.50 L 334.00 224.18 C368.47,226.67 399.32,241.65 413.96,263.00 C435.61,294.58 442.62,345.32 432.34,395.98 C425.18,431.27 409.92,461.16 387.95,482.92 L 381.21 489.58 L 386.69 498.87 C389.70,503.98 391.95,508.39 391.67,508.66 C391.40,508.93 388.79,505.07 385.88,500.08 C382.97,495.09 380.23,491.00 379.80,491.00 C379.36,491.00 376.19,493.07 372.75,495.61 C362.25,503.36 346.53,510.46 330.81,514.56 C319.15,517.61 307.61,518.80 288.32,518.94 C269.77,519.07 264.00,518.62 264.00,517.02 C264.00,516.61 266.98,514.52 270.63,512.39 C281.68,505.92 290.71,494.06 295.93,479.17 L 298.61 471.50 L 309.09 469.36 C336.39,463.78 356.52,447.17 370.97,418.30 C384.18,391.91 388.56,358.22 383.35,323.00 C382.03,314.05 378.01,298.55 376.25,295.62 C375.96,295.13 374.32,296.30 372.61,298.22 C368.38,302.94 357.00,312.43 357.00,311.23 C357.00,310.69 359.48,308.09 362.50,305.46 C365.52,302.82 368.00,300.11 368.00,299.45 C368.00,298.78 369.57,297.04 371.50,295.57 L 374.99 292.90 L 372.87 288.70 C369.96,282.92 362.83,273.03 359.36,269.97 C352.52,263.92 346.86,260.68 330.35,253.39 C325.63,251.31 325.25,251.56 324.50,257.25 C324.12,260.14 321.60,278.25 318.89,297.50 C316.18,316.75 312.63,342.40 311.00,354.50 C308.05,376.49 297.45,453.94 296.36,461.50 C295.26,469.20 291.82,481.51 289.24,486.98 C281.42,503.61 266.53,514.60 249.14,516.56 L 243.00 517.26 L 243.00 527.64 L 243.00 538.02 L 299.65 537.76 L 356.29 537.50 L 356.40 531.59 ZM 597.25 284.08 C597.11,283.85 597.00,284.30 596.99,285.08 C596.96,289.34 585.02,385.48 575.52,457.97 L 571.00 492.44 L 577.18 502.47 C580.57,507.99 586.31,517.34 589.93,523.25 L 596.50 534.00 L 597.00 409.25 C597.28,340.64 597.39,284.31 597.25,284.08 ZM 320.00 514.51 C331.63,512.46 347.34,507.36 357.16,502.44 C363.20,499.42 374.88,491.99 378.31,488.99 C379.55,487.90 370.07,472.84 368.67,473.69 C368.03,474.07 364.91,476.53 361.75,479.15 C345.08,492.96 323.60,501.04 298.00,503.15 C284.51,504.26 284.50,504.26 280.48,507.88 C278.27,509.87 274.90,512.76 272.98,514.29 L 269.50 517.08 L 290.00 516.63 C302.72,516.35 314.10,515.55 320.00,514.51 ZM 241.20 506.77 C241.16,502.52 241.54,498.78 242.06,498.46 C242.62,498.12 243.00,501.38 243.00,506.50 L 243.00 515.12 L 247.75 514.43 C264.53,511.98 276.20,504.54 284.48,490.99 C291.17,480.06 292.42,474.10 300.48,414.93 C307.88,360.65 318.48,283.62 321.64,261.23 L 323.23 249.95 L 316.87 241.59 C313.37,236.99 310.42,233.30 310.31,233.38 C309.99,233.65 287.27,395.00 281.50,438.00 C277.49,467.93 276.36,472.75 271.76,479.60 C268.02,485.16 260.11,491.53 255.00,493.08 C240.74,497.42 224.28,493.55 210.75,482.68 C205.79,478.70 198.59,468.04 195.75,460.50 C192.31,451.32 192.66,431.95 196.78,404.50 C198.51,392.95 201.54,371.80 203.52,357.50 C205.50,343.20 210.01,311.25 213.54,286.50 C217.08,261.75 221.34,231.65 223.00,219.61 L 226.03 197.71 L 220.57 190.61 C211.09,178.27 211.17,178.36 210.66,180.01 C210.41,180.83 209.47,186.90 208.57,193.50 C205.60,215.43 185.97,354.40 184.98,360.50 C180.99,385.06 174.00,439.41 174.02,445.74 C174.06,466.30 183.27,485.53 199.43,498.85 C208.03,505.94 221.55,511.92 233.50,513.94 C241.47,515.29 241.29,515.45 241.20,506.77 ZM 307.31 499.93 C319.62,498.10 329.06,495.07 341.50,488.92 C351.97,483.76 367.88,472.86 367.97,470.79 C368.04,469.21 358.78,455.02 358.00,455.50 C357.54,455.79 356.62,454.33 355.95,452.26 C355.28,450.19 354.58,448.21 354.38,447.86 C354.18,447.51 352.10,449.00 349.76,451.18 C337.04,463.03 322.16,470.09 304.76,472.55 C300.24,473.19 299.96,473.42 298.93,477.26 C297.33,483.20 293.56,491.32 290.02,496.47 L 286.90 501.00 L 293.51 501.00 C297.14,501.00 303.35,500.52 307.31,499.93 ZM 252.60 491.11 C260.76,488.91 268.17,482.64 272.32,474.43 C274.74,469.63 276.51,459.05 283.53,407.50 C287.13,381.10 293.87,332.73 298.50,300.00 C303.14,267.27 307.24,238.10 307.61,235.16 C308.00,232.06 308.86,229.61 309.67,229.30 C311.47,228.60 324.25,230.52 334.78,233.07 C358.52,238.81 374.83,247.77 389.54,263.17 L 397.16 271.15 L 403.01 265.15 L 408.86 259.16 L 403.68 254.27 C398.09,249.00 388.91,242.50 382.50,239.26 C369.82,232.87 346.94,227.31 329.40,226.37 C322.85,226.02 317.38,225.63 317.23,225.51 C317.08,225.39 320.76,222.97 325.40,220.12 C350.69,204.61 382.94,195.89 404.40,198.76 C418.36,200.63 432.88,206.40 442.89,214.05 L 448.27 218.17 L 454.64 211.87 C458.14,208.40 461.00,205.27 461.00,204.91 C461.00,203.23 448.02,195.78 438.58,192.04 C422.82,185.80 403.02,183.97 383.50,186.96 C367.20,189.45 345.21,197.86 330.54,207.20 C321.37,213.03 305.00,225.75 305.00,227.04 C305.00,227.51 302.10,248.28 298.55,273.20 C289.45,337.18 280.51,401.17 277.49,423.91 C272.95,458.15 271.33,467.44 269.17,471.66 C258.19,493.19 222.20,486.39 209.33,460.36 C203.61,448.78 203.68,444.56 210.43,396.00 C213.53,373.73 216.72,351.00 217.52,345.50 C220.42,325.61 234.95,221.29 235.97,213.00 C236.55,208.32 237.26,203.04 237.55,201.25 L 238.09 198.00 L 233.19 198.00 L 228.29 198.00 L 224.63 225.25 C222.62,240.24 220.55,254.75 220.03,257.50 C219.52,260.25 217.94,271.05 216.53,281.50 C215.11,291.95 213.53,302.98 213.02,306.00 C212.50,309.02 210.01,326.58 207.49,345.00 C204.97,363.42 201.13,391.21 198.95,406.74 C196.78,422.27 195.00,438.04 195.00,441.78 C195.00,473.73 224.22,498.75 252.60,491.11 ZM 391.68 475.81 C408.13,457.34 419.34,436.52 426.40,411.32 C439.25,365.42 437.18,314.06 421.13,280.50 C415.99,269.75 411.43,262.00 410.24,262.00 C409.83,262.00 406.81,264.41 403.52,267.36 L 397.54 272.71 L 400.13 276.63 C410.40,292.13 416.09,318.81 416.11,351.50 C416.12,373.97 413.61,391.83 407.94,409.53 C400.24,433.56 390.38,451.04 375.68,466.70 L 370.80 471.91 L 374.56 478.20 C380.02,487.34 379.87,487.20 382.24,485.54 C383.36,484.76 387.60,480.38 391.68,475.81 ZM 255.08 480.86 C257.17,480.23 260.43,478.44 262.32,476.89 C268.62,471.70 269.53,468.21 275.01,428.31 C286.60,343.94 303.03,228.08 303.62,226.55 C303.97,225.64 302.49,224.86 298.81,224.03 C295.89,223.37 292.70,222.61 291.73,222.34 C289.04,221.60 287.47,226.48 284.05,246.13 C280.72,265.29 280.98,263.49 273.95,315.00 C271.21,335.08 268.09,357.35 267.02,364.50 C265.95,371.65 264.41,382.45 263.60,388.50 C258.04,430.20 252.77,463.42 251.39,465.53 C249.14,468.96 244.06,470.40 239.26,468.96 C232.72,467.00 226.13,461.47 223.43,455.69 C219.73,447.74 219.73,447.77 227.38,395.00 C229.33,381.52 233.66,350.92 236.99,327.00 C240.33,303.08 244.60,273.15 246.48,260.50 C248.35,247.85 251.50,225.80 253.47,211.50 C255.44,197.20 257.30,184.15 257.62,182.50 C258.13,179.81 257.28,180.40 249.22,188.35 L 240.25 197.21 L 238.04 213.85 C236.83,223.01 232.96,250.98 229.45,276.00 C225.94,301.02 220.78,337.92 217.98,358.00 C215.19,378.08 211.57,403.73 209.95,415.00 C208.33,426.27 207.01,438.27 207.00,441.64 C206.99,459.42 218.78,474.98 236.50,480.60 C241.59,482.21 250.16,482.33 255.08,480.86 ZM 376.69 462.46 C388.85,448.77 397.98,432.26 404.97,411.31 C410.94,393.40 413.12,379.86 413.73,356.96 C414.65,322.22 409.51,295.45 398.62,278.18 L 396.01 274.05 L 388.00 282.19 C383.59,286.66 379.74,290.07 379.43,289.76 C379.13,289.46 382.55,285.61 387.03,281.21 C396.59,271.83 396.65,272.72 385.74,262.36 C372.84,250.11 360.79,243.30 341.98,237.64 C330.23,234.11 314.51,231.16 313.39,232.27 C313.05,232.62 315.64,236.59 319.14,241.10 C324.33,247.80 326.24,249.53 329.50,250.48 C335.90,252.34 351.03,260.58 356.83,265.35 C371.25,277.21 379.81,293.58 385.13,319.50 C388.27,334.81 388.30,363.97 385.19,381.11 C381.00,404.20 372.26,424.61 359.85,440.31 C357.73,442.99 356.00,445.74 356.00,446.42 C356.00,447.10 357.12,448.71 358.50,450.00 C359.88,451.29 361.00,452.97 361.00,453.72 C361.00,456.41 368.38,469.00 369.95,469.00 C370.46,469.00 373.49,466.06 376.69,462.46 ZM 572.49 464.68 C572.79,462.93 575.28,443.73 578.02,422.00 C580.75,400.27 583.89,375.98 584.99,368.00 C588.31,343.89 597.00,268.46 597.00,263.71 L 597.00 259.28 L 578.50 259.31 L 560.00 259.34 L 560.00 355.67 L 560.00 452.00 L 526.73 452.00 L 493.45 452.00 L 485.49 460.01 L 477.52 468.02 L 524.73 467.94 L 571.94 467.86 L 572.49 464.68 ZM 248.93 465.07 C249.99,464.01 251.13,461.20 251.45,458.82 C259.29,402.25 262.30,380.81 263.49,373.00 C264.29,367.77 268.12,340.55 271.99,312.50 C279.86,255.49 284.02,230.70 287.09,222.50 C288.86,217.77 290.57,215.71 298.83,208.43 C310.62,198.03 325.21,188.09 337.95,181.76 L 347.50 177.03 L 304.36 177.01 L 261.22 177.00 L 260.66 179.25 C260.15,181.28 249.91,252.81 230.03,393.16 C226.17,420.48 223.00,444.35 223.00,446.22 C223.00,453.36 229.98,463.05 237.20,465.95 C241.25,467.57 246.85,467.15 248.93,465.07 ZM 491.72 355.02 C491.40,271.22 491.15,258.70 489.74,252.96 C485.50,235.84 478.94,223.06 469.12,212.80 L 462.50 205.89 L 456.11 212.36 L 449.72 218.84 L 455.42 225.67 C462.76,234.46 470.42,249.91 473.19,261.50 C475.29,270.33 475.34,272.34 475.68,367.50 C475.87,420.85 476.02,464.89 476.01,465.37 C476.00,465.85 479.62,462.71 484.04,458.40 L 492.08 450.55 L 491.72 355.02 ZM 556.00 449.09 C556.00,448.79 552.07,444.59 547.27,439.77 L 538.54 431.00 L 526.54 431.00 L 514.54 431.00 L 505.77 439.73 C500.95,444.53 497.00,448.69 497.00,448.98 C497.00,449.27 510.28,449.53 526.50,449.57 C542.73,449.60 556.00,449.39 556.00,449.09 ZM 513.00 347.68 C513.00,268.91 512.92,265.43 510.94,255.66 C506.50,233.81 499.99,219.70 486.89,203.50 C480.36,195.43 476.49,191.63 475.32,192.14 C474.86,192.34 472.11,195.04 469.19,198.15 L 463.90 203.80 L 468.92 208.82 C479.27,219.17 487.55,234.93 491.61,252.00 C493.24,258.86 493.42,267.53 493.73,353.94 L 494.08 448.38 L 503.54 438.96 L 513.00 429.54 L 513.00 347.68 ZM 557.77 279.32 C557.62,217.07 557.78,166.67 558.12,167.32 C559.36,169.66 559.96,187.15 559.98,221.64 L 560.00 256.79 L 578.50 256.74 C594.72,256.69 597.00,256.49 597.03,255.09 C597.06,253.70 597.23,253.72 598.38,255.24 C599.59,256.82 599.86,256.67 601.58,253.49 C602.61,251.57 603.78,250.00 604.17,250.00 C604.57,250.00 608.29,244.31 612.45,237.36 L 620.00 224.72 L 620.00 148.86 L 620.00 72.99 L 489.40 73.25 L 358.79 73.50 L 358.65 83.25 C358.45,96.47 356.58,96.48 356.22,83.25 L 355.93 73.00 L 231.97 73.00 L 108.00 73.00 L 108.00 92.00 L 108.00 111.00 L 121.17 111.00 C128.41,111.00 134.05,111.29 133.70,111.63 C133.35,111.98 127.43,112.19 120.53,112.10 L 108.00 111.93 L 108.00 171.47 C108.00,204.21 108.34,231.00 108.76,231.00 C109.17,231.00 110.97,230.58 112.74,230.07 C114.73,229.51 116.19,229.51 116.55,230.07 C116.86,230.58 122.04,231.00 128.05,231.00 L 138.98 231.00 L 139.24 170.75 L 139.50 110.50 L 248.50 110.50 L 357.50 110.50 L 357.78 122.75 L 358.06 135.00 L 414.93 135.00 L 471.80 135.00 L 478.73 123.75 L 485.66 112.50 L 483.08 111.87 C480.65,111.27 480.68,111.23 483.69,111.12 C486.51,111.01 487.37,110.20 491.19,104.01 C495.43,97.13 495.57,97.02 499.75,97.01 L 504.00 97.00 L 504.00 92.50 L 504.00 88.00 L 531.00 88.00 L 558.00 88.00 L 558.00 98.02 L 558.00 108.03 L 531.25 107.77 L 504.50 107.50 L 504.19 102.69 L 503.89 97.89 L 500.22 98.19 C497.02,98.46 496.07,99.21 492.83,104.00 C490.78,107.03 489.08,109.81 489.05,110.18 C489.02,110.56 490.24,111.05 491.75,111.28 C494.14,111.65 494.04,111.72 491.00,111.86 C487.68,112.02 487.16,112.58 480.75,122.91 C477.04,128.90 474.00,134.07 474.00,134.40 C474.00,134.73 478.84,135.01 484.75,135.01 C501.22,135.04 512.89,138.57 521.53,146.16 L 525.14 149.33 L 539.41 135.09 C552.20,122.32 554.09,120.80 557.78,120.30 C561.78,119.77 561.91,119.64 562.20,115.63 L 562.50 111.50 L 584.50 111.50 L 606.50 111.50 L 606.50 121.00 L 606.50 130.50 L 584.50 130.50 L 562.50 130.50 L 562.19 126.25 C561.89,122.07 561.83,122.00 558.16,122.00 C554.95,122.00 553.65,122.80 548.69,127.81 C545.53,131.00 543.26,133.92 543.64,134.31 C544.02,134.69 561.16,135.00 581.73,135.00 C604.51,135.00 618.89,135.36 618.54,135.93 C618.20,136.48 603.30,136.78 581.98,136.67 C562.19,136.57 546.00,136.63 546.00,136.81 C546.00,136.98 546.47,138.00 547.04,139.07 C548.59,141.97 547.20,141.40 544.28,137.92 L 541.70 134.85 L 533.96 142.54 L 526.22 150.23 L 530.06 155.71 C534.83,162.52 537.76,171.14 539.02,182.08 C539.59,187.05 539.99,239.43 539.99,309.90 L 540.00 429.31 L 548.75 438.40 L 557.50 447.50 L 557.77 420.00 C557.92,404.88 557.92,341.57 557.77,279.32 ZM 537.50 364.56 L 537.50 300.62 L 530.75 300.40 C527.04,300.28 523.76,300.58 523.47,301.05 C523.17,301.54 521.81,301.50 520.40,300.96 C519.01,300.43 517.45,300.00 516.93,300.00 C516.36,300.00 516.00,325.17 516.00,364.53 L 516.00 429.07 L 526.75 428.78 L 537.50 428.50 L 537.50 364.56 ZM 537.78 241.47 C537.63,210.50 537.17,184.83 536.76,184.42 C536.35,184.01 535.12,184.49 534.03,185.47 C532.94,186.46 530.89,187.40 529.48,187.55 C527.44,187.78 492.46,202.37 491.15,203.55 C490.96,203.72 493.53,208.22 496.87,213.54 C509.64,233.89 516.00,258.63 516.00,287.89 L 516.00 297.57 L 527.03 297.67 L 538.06 297.77 L 537.78 241.47 ZM 314.21 215.88 C331.23,202.84 343.47,196.11 360.35,190.51 C397.09,178.31 430.89,181.28 457.11,199.03 L 462.73 202.83 L 468.59 196.91 C474.40,191.04 474.43,190.98 472.47,189.08 C468.99,185.68 454.63,177.53 446.44,174.30 C410.91,160.29 360.64,168.17 321.54,193.86 C313.31,199.27 295.30,214.03 292.70,217.50 L 290.91 219.90 L 295.20 221.00 C297.57,221.61 299.95,222.27 300.50,222.47 C303.36,223.52 305.70,222.40 314.21,215.88 ZM 668.00 200.00 L 668.00 191.00 L 657.00 191.00 L 646.00 191.00 L 646.00 200.00 L 646.00 209.00 L 657.00 209.00 L 668.00 209.00 L 668.00 200.00 ZM 745.00 199.99 L 745.00 190.98 L 707.44 191.24 L 669.88 191.50 L 669.69 200.25 L 669.50 209.00 L 707.25 209.00 L 745.00 209.00 L 745.00 199.99 ZM 509.92 193.57 C519.44,189.44 527.74,185.43 528.36,184.65 C528.99,183.86 531.22,182.92 533.33,182.55 L 537.16 181.88 L 536.46 177.75 C535.48,171.93 532.44,163.45 529.80,159.15 C526.93,154.47 519.07,146.00 517.59,146.00 C516.97,146.00 515.61,147.57 514.57,149.50 C513.53,151.43 512.19,153.00 511.59,153.01 C510.24,153.01 484.75,180.51 483.83,182.97 C483.46,183.95 481.74,185.76 480.02,186.99 L 476.88 189.22 L 482.69 195.52 C486.90,200.09 489.06,201.71 490.55,201.44 C491.68,201.23 500.39,197.69 509.92,193.57 ZM 240.70 190.25 C242.16,185.46 242.51,184.96 242.79,187.25 C242.98,188.76 243.45,190.00 243.85,190.00 C244.24,190.00 247.46,187.07 251.00,183.50 L 257.44 177.00 L 251.40 177.00 L 245.35 177.00 L 244.22 180.75 L 243.10 184.50 L 243.59 180.75 L 244.09 177.00 L 228.55 177.00 C220.00,177.00 213.00,177.24 213.00,177.53 C213.00,177.82 215.37,180.86 218.27,184.28 C221.17,187.70 224.43,191.72 225.52,193.22 C227.27,195.62 228.17,195.94 233.22,195.97 L 238.94 196.00 L 240.70 190.25 ZM 477.87 185.50 C479.00,183.57 480.59,182.00 481.38,182.00 C482.18,182.00 482.98,181.58 483.17,181.07 C483.35,180.55 489.35,173.75 496.50,165.96 C503.65,158.16 509.40,151.41 509.27,150.96 C509.15,150.51 510.48,148.93 512.23,147.46 C515.31,144.86 515.35,144.73 513.47,143.36 C508.79,139.94 498.61,137.72 485.35,137.25 C472.37,136.78 472.17,136.81 470.72,139.14 C469.91,140.44 465.85,146.75 461.71,153.17 C457.56,159.59 454.43,165.10 454.76,165.42 C455.08,165.74 454.43,167.02 453.32,168.25 C449.53,172.46 449.66,172.72 457.73,176.93 C462.00,179.17 467.75,182.76 470.50,184.91 C473.25,187.07 475.57,188.87 475.65,188.92 C475.73,188.96 476.73,187.43 477.87,185.50 ZM 244.81 173.25 C245.30,172.29 246.75,167.34 248.03,162.25 C249.32,157.16 250.70,153.00 251.11,153.00 C251.51,153.00 250.60,157.73 249.09,163.50 C247.58,169.28 246.56,174.23 246.84,174.50 C247.11,174.78 271.56,175.00 301.17,175.00 L 355.00 175.00 L 355.00 144.00 L 355.00 113.00 L 249.25 113.04 L 143.50 113.08 L 146.60 115.79 C149.65,118.45 173.14,140.15 197.92,163.20 L 210.50 174.89 L 227.21 174.95 C242.16,174.99 244.02,174.82 244.81,173.25 ZM 369.30 170.05 C394.38,163.44 422.49,163.46 441.79,170.10 C448.42,172.38 449.00,172.42 449.00,170.55 C449.00,168.27 451.21,164.00 452.41,163.96 C453.28,163.93 468.56,141.02 469.83,137.83 C470.02,137.38 444.95,137.00 414.13,137.00 L 358.09 137.00 L 357.79 155.00 C357.63,164.90 357.64,173.00 357.80,173.00 C357.97,173.00 363.14,171.67 369.30,170.05 ZM 605.00 120.47 L 605.00 111.94 L 584.50 112.04 L 564.00 112.14 L 564.00 120.57 L 564.00 129.00 L 584.50 129.00 L 605.00 129.00 L 605.00 120.47 ZM 557.00 97.50 L 557.00 89.00 L 531.50 89.00 L 506.00 89.00 L 506.00 97.50 L 506.00 106.00 L 531.50 106.00 L 557.00 106.00 L 557.00 97.50 ZM 529.01 64.97 C530.11,62.83 531.00,60.95 531.00,60.79 C531.00,60.63 528.73,60.66 525.95,60.85 C523.17,61.04 521.05,61.49 521.23,61.85 C525.86,71.09 525.89,71.10 529.01,64.97 ZM 26.37 585.27 C29.19,584.85 29.23,584.76 28.58,579.92 C28.17,576.78 28.30,575.00 28.97,575.00 C30.42,575.00 30.41,83.81 28.96,82.36 C28.27,81.67 28.23,79.93 28.85,77.16 C29.75,73.18 29.68,73.00 27.39,73.00 C26.08,73.00 25.00,72.55 25.00,72.00 C25.00,71.35 38.35,71.00 63.06,71.00 C88.18,71.00 100.91,71.34 100.50,72.00 C100.11,72.64 87.37,73.00 65.58,73.00 L 31.27 73.00 L 32.06 77.25 C32.51,79.69 32.45,81.91 31.92,82.45 C30.58,83.83 30.69,575.00 32.03,575.00 C32.70,575.00 32.83,576.79 32.41,579.96 L 31.75 584.93 L 66.04 584.96 C84.90,584.98 100.55,585.22 100.83,585.50 C101.11,585.77 83.82,585.93 62.42,585.85 C41.01,585.77 24.79,585.51 26.37,585.27 ZM 16.44 379.55 C15.49,378.11 15.10,376.26 15.48,375.05 C16.98,370.34 24.12,369.97 26.18,374.49 C28.88,380.43 20.03,385.03 16.44,379.55 ZM 24.07 378.42 C25.82,376.30 24.07,373.50 21.00,373.50 C17.93,373.50 16.18,376.30 17.93,378.42 C18.65,379.29 20.03,380.00 21.00,380.00 C21.97,380.00 23.35,379.29 24.07,378.42 ZM 44.00 379.71 C40.69,378.04 40.19,373.81 42.98,371.02 C44.13,369.87 44.83,368.53 44.52,368.04 C44.22,367.55 44.95,366.83 46.15,366.45 L 48.33 365.76 L 45.92 363.79 C43.91,362.14 43.84,361.93 45.50,362.52 C46.60,362.91 48.29,363.45 49.25,363.73 C51.74,364.45 51.42,365.72 48.33,367.33 L 45.67 368.73 L 48.58 370.12 C52.50,371.99 53.18,377.06 49.83,379.40 C47.12,381.31 47.16,381.31 44.00,379.71 ZM 48.80 377.80 C51.82,374.78 48.75,369.99 45.06,371.97 C41.87,373.67 42.96,379.00 46.50,379.00 C47.10,379.00 48.14,378.46 48.80,377.80 ZM 19.87 368.13 C21.89,366.58 22.01,366.22 20.62,365.69 C17.56,364.51 18.86,363.06 22.00,364.15 C26.24,365.63 26.51,366.69 23.08,368.46 C19.00,370.57 16.97,370.36 19.87,368.13 ZM 19.64 361.82 C17.61,360.68 17.51,357.65 19.46,356.04 C21.28,354.52 23.00,355.51 23.00,358.06 C23.00,359.13 23.50,360.00 24.11,360.00 C24.81,360.00 24.97,359.00 24.54,357.25 C23.92,354.69 23.99,354.62 25.53,356.13 C28.69,359.24 23.68,364.08 19.64,361.82 ZM 20.68 357.81 C20.36,357.01 20.13,357.25 20.08,358.42 C20.04,359.47 20.27,360.06 20.60,359.73 C20.94,359.40 20.97,358.53 20.68,357.81 ZM 44.41 359.63 C43.39,356.97 44.46,354.51 46.78,354.18 C49.44,353.80 48.75,352.00 45.94,352.00 C44.87,352.00 44.00,351.33 44.00,350.50 C44.00,348.75 44.36,348.74 48.94,350.40 C51.08,351.17 51.94,351.92 51.22,352.37 C50.32,352.92 50.33,353.56 51.26,355.05 C52.16,356.49 52.20,357.47 51.39,358.75 C49.96,361.04 45.18,361.63 44.41,359.63 ZM 45.68 356.81 C45.36,356.01 45.13,356.25 45.08,357.42 C45.04,358.47 45.27,359.06 45.60,358.73 C45.94,358.40 45.97,357.53 45.68,356.81 ZM 50.00 356.94 C50.00,355.81 49.55,355.16 49.00,355.50 C48.45,355.84 48.00,356.77 48.00,357.56 C48.00,358.35 48.45,359.00 49.00,359.00 C49.55,359.00 50.00,358.07 50.00,356.94 ZM 651.67 357.33 C651.30,356.97 651.00,354.46 651.00,351.77 C651.00,347.03 651.09,346.88 653.71,347.18 C655.98,347.45 656.55,348.15 657.24,351.49 C657.92,354.74 657.75,355.71 656.34,356.74 C654.44,358.13 652.69,358.35 651.67,357.33 ZM 655.77 354.19 C655.99,353.53 655.45,353.00 654.58,353.00 C653.71,353.00 653.00,353.71 653.00,354.58 C653.00,356.35 655.15,356.04 655.77,354.19 ZM 655.00 350.00 C655.00,349.45 654.55,349.00 654.00,349.00 C653.45,349.00 653.00,349.45 653.00,350.00 C653.00,350.55 653.45,351.00 654.00,351.00 C654.55,351.00 655.00,350.55 655.00,350.00 ZM 18.67 353.33 C18.30,352.97 18.00,351.98 18.00,351.13 C18.00,349.94 18.27,349.87 19.20,350.80 C19.86,351.46 21.66,352.00 23.20,352.00 C24.74,352.00 26.00,352.45 26.00,353.00 C26.00,354.11 19.72,354.39 18.67,353.33 ZM 19.04 348.07 C17.63,345.43 17.73,342.27 19.25,341.66 C19.94,341.38 19.49,341.12 18.25,341.08 C13.65,340.92 16.19,339.00 21.00,339.00 C25.68,339.00 27.59,340.19 24.75,341.34 C23.75,341.74 23.75,341.86 24.75,341.92 C26.64,342.04 26.35,348.65 24.42,349.39 C21.67,350.45 20.10,350.06 19.04,348.07 ZM 24.81 345.74 C25.21,343.67 22.32,342.28 20.80,343.80 C19.28,345.32 20.67,348.21 22.74,347.81 C23.69,347.63 24.63,346.69 24.81,345.74 ZM 44.39 346.57 C44.09,345.79 43.99,344.10 44.17,342.82 C44.44,340.90 45.10,340.50 48.00,340.50 C51.12,340.50 51.54,340.82 51.83,343.39 C52.02,345.03 51.59,346.65 50.83,347.13 C48.73,348.46 44.99,348.14 44.39,346.57 ZM 50.50 344.01 C50.50,342.23 47.20,341.40 45.78,342.82 C45.23,343.37 45.09,344.34 45.48,344.97 C46.48,346.58 50.50,345.81 50.50,344.01 ZM 41.00 338.00 C41.00,337.45 43.47,337.00 46.50,337.00 C49.53,337.00 52.00,337.45 52.00,338.00 C52.00,338.55 49.53,339.00 46.50,339.00 C43.47,339.00 41.00,338.55 41.00,338.00 ZM 16.56 337.10 C16.25,336.60 18.25,336.04 21.00,335.85 C25.94,335.50 27.50,336.21 24.42,337.39 C22.04,338.31 17.19,338.12 16.56,337.10 ZM 41.00 335.00 C41.00,334.45 43.47,334.00 46.50,334.00 C49.53,334.00 52.00,334.45 52.00,335.00 C52.00,335.55 49.53,336.00 46.50,336.00 C43.47,336.00 41.00,335.55 41.00,335.00 ZM 18.50 333.00 C18.16,332.45 18.36,332.00 18.94,332.00 C19.52,332.00 20.00,332.45 20.00,333.00 C20.00,333.55 19.80,334.00 19.56,334.00 C19.32,334.00 18.84,333.55 18.50,333.00 ZM 24.50 333.00 C24.16,332.45 24.36,332.00 24.94,332.00 C25.52,332.00 26.00,332.45 26.00,333.00 C26.00,333.55 25.80,334.00 25.56,334.00 C25.32,334.00 24.84,333.55 24.50,333.00 ZM 44.00 332.00 C44.00,331.45 44.45,331.00 45.00,331.00 C45.55,331.00 46.00,331.45 46.00,332.00 C46.00,332.55 45.55,333.00 45.00,333.00 C44.45,333.00 44.00,332.55 44.00,332.00 ZM 50.00 330.94 C50.00,330.36 50.45,330.16 51.00,330.50 C51.55,330.84 52.00,331.32 52.00,331.56 C52.00,331.80 51.55,332.00 51.00,332.00 C50.45,332.00 50.00,331.52 50.00,330.94 ZM 16.67 326.33 C15.40,325.06 16.01,321.10 17.61,320.20 C19.09,319.37 19.09,319.25 17.61,318.68 C15.78,317.98 15.45,313.95 17.09,312.31 C17.87,311.53 17.87,311.04 17.09,310.55 C15.33,309.47 15.84,306.16 17.93,305.04 C20.83,303.49 23.49,303.78 25.37,305.86 C27.02,307.68 26.70,311.00 24.87,311.00 C24.37,311.00 24.68,312.11 25.56,313.46 C26.46,314.83 26.83,316.46 26.40,317.17 C25.97,317.85 25.75,320.46 25.89,322.96 L 26.17 327.50 L 23.14 324.62 C21.12,322.70 19.55,321.96 18.39,322.40 C17.08,322.91 16.94,323.34 17.83,324.23 C18.47,324.87 19.00,325.76 19.00,326.20 C19.00,327.17 17.59,327.25 16.67,326.33 ZM 25.00 321.00 C25.00,319.50 24.33,319.00 22.35,319.00 C19.75,319.00 19.73,319.05 21.50,321.00 C22.50,322.10 23.69,323.00 24.15,323.00 C24.62,323.00 25.00,322.10 25.00,321.00 ZM 24.71 315.63 C24.21,314.14 17.78,314.17 17.28,315.67 C17.06,316.31 17.70,317.00 18.69,317.20 C21.55,317.79 25.12,316.86 24.71,315.63 ZM 24.50 308.00 C24.50,306.08 20.35,305.46 18.40,307.08 C17.20,308.08 17.16,308.49 18.20,309.17 C20.22,310.49 24.50,309.69 24.50,308.00 ZM 42.20 324.80 C40.59,323.19 40.69,321.50 42.47,320.02 C43.77,318.95 43.77,318.63 42.47,317.33 C40.59,315.44 40.60,313.58 42.51,311.99 C43.85,310.88 43.82,310.59 42.26,309.43 C38.94,306.96 43.75,302.22 48.39,303.38 C51.61,304.19 52.75,306.57 51.15,309.13 C50.26,310.56 50.26,311.44 51.15,312.87 C52.67,315.30 51.59,318.00 49.09,318.00 C46.30,318.00 45.79,319.39 48.06,320.81 C49.66,321.80 50.00,321.75 50.00,320.51 C50.00,319.68 50.45,319.00 51.00,319.00 C51.55,319.00 52.00,320.60 52.00,322.55 L 52.00 326.10 L 48.66 323.55 C44.35,320.27 42.77,320.25 43.59,323.50 C44.29,326.28 43.97,326.57 42.20,324.80 ZM 48.42 316.39 C51.18,315.33 50.24,313.00 47.06,313.00 C43.73,313.00 42.04,314.78 44.12,316.10 C45.78,317.14 46.36,317.18 48.42,316.39 ZM 49.81 307.25 C49.44,305.28 45.30,304.30 43.77,305.83 C42.18,307.42 43.86,309.00 47.13,309.00 C49.46,309.00 50.07,308.60 49.81,307.25 ZM 18.00 299.08 C18.00,298.58 18.56,297.98 19.25,297.75 C20.22,297.42 20.20,296.96 19.13,295.66 C17.58,293.79 18.96,293.36 20.76,295.16 C21.63,296.03 22.30,296.00 23.48,295.02 C24.34,294.30 25.36,294.03 25.75,294.41 C26.13,294.80 25.78,295.53 24.97,296.05 C23.68,296.89 23.68,297.11 24.97,297.95 C25.78,298.47 26.13,299.20 25.75,299.59 C25.36,299.97 24.46,299.80 23.74,299.20 C22.91,298.51 21.90,298.45 20.97,299.04 C19.09,300.23 18.00,300.24 18.00,299.08 ZM 44.33 296.00 C44.33,292.76 44.93,292.33 46.80,294.20 C47.73,295.13 48.27,295.13 49.20,294.20 C50.93,292.47 52.48,292.72 51.00,294.50 C50.01,295.70 50.01,296.30 51.00,297.50 C52.44,299.24 51.67,299.43 48.99,298.00 C47.74,297.33 46.92,297.33 46.50,298.00 C45.32,299.90 44.33,298.99 44.33,296.00 ZM 16.08 287.15 C15.38,285.83 15.51,284.72 16.56,283.22 C17.49,281.89 17.65,280.90 17.01,280.51 C15.50,279.57 15.79,276.42 17.52,274.98 C18.87,273.87 18.81,273.55 17.02,272.30 C12.45,269.10 19.88,264.38 24.61,267.48 C27.41,269.31 27.57,270.29 25.43,272.43 C24.07,273.78 24.05,274.19 25.27,275.42 C26.45,276.59 26.79,282.50 26.04,288.80 C26.02,288.97 24.40,287.88 22.45,286.40 C19.60,284.22 18.67,283.94 17.70,284.97 C16.76,285.97 16.77,286.35 17.75,286.71 C19.22,287.25 19.44,289.00 18.04,289.00 C17.50,289.00 16.63,288.17 16.08,287.15 ZM 25.00 283.59 C25.00,281.66 24.60,281.29 22.96,281.72 C21.03,282.22 21.01,282.36 22.62,284.13 C24.80,286.54 25.00,286.49 25.00,283.59 ZM 24.50 278.00 C24.50,276.39 20.84,275.46 18.31,276.43 C17.05,276.92 17.00,277.30 18.05,278.56 C19.65,280.48 24.50,280.06 24.50,278.00 ZM 23.42 271.39 C25.58,270.56 25.41,269.26 23.04,268.51 C20.37,267.67 16.17,269.86 18.11,271.09 C19.76,272.13 21.27,272.22 23.42,271.39 ZM 42.00 285.12 C42.00,283.47 42.51,281.80 43.13,281.42 C43.90,280.94 43.74,280.43 42.63,279.81 C40.26,278.49 40.61,275.08 43.21,274.12 L 45.43 273.30 L 43.21 272.11 C40.18,270.49 40.37,267.19 43.57,265.97 C49.16,263.85 54.07,268.05 50.55,271.95 C49.09,273.56 49.08,273.82 50.46,274.35 C53.75,275.61 51.79,280.35 47.64,281.14 C45.88,281.48 45.90,281.61 47.89,283.40 C49.97,285.29 50.00,285.28 50.00,283.15 C50.00,281.97 50.45,281.00 51.00,281.00 C51.55,281.00 52.00,282.58 52.00,284.50 C52.00,288.69 51.45,288.81 47.89,285.39 C45.19,282.81 42.37,282.92 43.39,285.57 C43.68,286.32 43.48,287.20 42.96,287.53 C42.43,287.85 42.00,286.77 42.00,285.12 ZM 49.50 277.00 C49.50,275.27 46.15,274.57 44.12,275.88 C43.36,276.37 43.07,277.30 43.47,277.95 C44.50,279.61 49.50,278.83 49.50,277.00 ZM 50.00 269.56 C50.00,267.52 48.28,266.71 45.44,267.42 C41.59,268.39 42.36,271.00 46.50,271.00 C48.88,271.00 50.00,270.54 50.00,269.56 ZM 627.00 136.00 C627.00,135.38 631.98,135.00 639.93,135.00 L 652.86 135.00 L 652.85 104.00 L 652.84 73.00 L 639.92 73.00 C631.97,73.00 627.00,72.62 627.00,72.00 C627.00,71.37 633.19,71.00 643.56,71.00 C654.34,71.00 659.90,71.35 659.50,72.00 C659.16,72.55 658.05,73.00 657.03,73.00 C655.28,73.00 655.19,74.52 655.18,104.00 C655.17,133.87 655.24,135.00 657.09,135.00 C658.14,135.00 659.00,135.45 659.00,136.00 C659.00,136.62 653.00,137.00 643.00,137.00 C633.00,137.00 627.00,136.62 627.00,136.00 ZM 639.00 116.61 C639.00,115.35 640.07,115.00 643.94,115.00 C646.66,115.00 649.16,115.45 649.50,116.00 C649.87,116.60 648.54,117.00 646.14,117.00 C643.95,117.00 641.45,117.27 640.58,117.61 C639.54,118.01 639.00,117.66 639.00,116.61 ZM 646.80 110.80 C648.50,109.10 648.29,107.00 646.41,107.00 C645.53,107.00 644.57,107.92 644.28,109.05 C643.53,111.90 639.61,111.28 639.18,108.25 C639.00,107.01 639.34,106.00 639.93,106.00 C640.52,106.00 641.02,106.79 641.05,107.75 C641.10,109.22 641.36,109.14 642.67,107.25 C644.47,104.68 647.20,104.33 648.96,106.45 C650.51,108.32 649.36,112.00 647.23,112.00 C645.96,112.00 645.87,111.73 646.80,110.80 ZM 648.00 103.00 C648.00,102.45 648.45,102.00 649.00,102.00 C649.55,102.00 650.00,102.45 650.00,103.00 C650.00,103.55 649.55,104.00 649.00,104.00 C648.45,104.00 648.00,103.55 648.00,103.00 ZM 640.75 99.92 C638.73,98.74 638.46,95.94 640.20,94.20 C642.87,91.53 650.00,93.57 650.00,97.00 C650.00,100.36 644.49,102.10 640.75,99.92 ZM 647.50 97.00 C647.50,95.25 643.23,94.37 641.77,95.83 C640.18,97.42 641.95,99.14 644.84,98.81 C646.40,98.63 647.50,97.88 647.50,97.00 ZM 106.37 51.00 C106.33,41.92 106.49,35.74 106.72,37.25 L 107.13 39.99 L 364.00 39.98 L 620.86 39.97 L 621.30 37.73 C621.53,36.51 621.69,42.70 621.65,51.50 C621.57,66.36 621.54,66.60 621.25,54.77 L 620.94 42.03 L 364.00 42.03 L 107.06 42.02 L 106.75 54.76 C106.47,65.90 106.43,65.43 106.37,51.00 ZM 311.03 63.78 C310.99,61.56 314.12,55.00 315.22,55.00 C316.25,55.00 320.26,64.07 319.55,64.78 C319.27,65.06 318.76,64.55 318.42,63.64 C317.59,61.48 314.07,61.54 312.39,63.75 C311.15,65.39 311.06,65.39 311.03,63.78 ZM 316.00 59.00 C316.00,58.45 315.55,58.00 315.00,58.00 C314.45,58.00 314.00,58.45 314.00,59.00 C314.00,59.55 314.45,60.00 315.00,60.00 C315.55,60.00 316.00,59.55 316.00,59.00 ZM 537.78 52.05 C536.89,45.91 537.81,45.10 541.13,49.10 L 543.95 52.50 L 543.97 49.25 C543.99,47.46 544.45,46.00 545.00,46.00 C545.55,46.00 546.00,48.25 546.00,51.00 C546.00,53.75 545.63,56.00 545.19,56.00 C544.74,56.00 543.28,54.54 541.94,52.75 L 539.51 49.50 L 538.97 53.00 L 538.43 56.50 L 537.78 52.05 ZM 548.04 55.25 C548.05,54.84 548.71,53.38 549.50,52.00 C551.41,48.65 551.36,48.36 548.75,47.46 C546.72,46.77 546.83,46.65 549.85,46.28 C551.69,46.05 553.43,46.10 553.72,46.38 C554.01,46.67 553.04,48.95 551.58,51.45 C549.06,55.76 547.96,56.94 548.04,55.25 ZM 305.20 35.80 C303.48,34.08 303.72,29.42 305.63,27.52 C307.97,25.18 312.15,26.00 313.91,29.13 C315.23,31.49 315.20,32.04 313.67,34.38 C311.81,37.22 307.36,37.96 305.20,35.80 ZM 312.52 32.95 C313.88,28.64 308.09,26.09 305.97,30.06 C305.15,31.60 305.17,32.50 306.05,33.56 C307.85,35.73 311.75,35.36 312.52,32.95 ZM 318.00 36.62 C318.00,36.41 317.32,34.61 316.49,32.62 C315.65,30.63 315.40,29.00 315.92,29.00 C316.44,29.00 317.17,29.97 317.55,31.17 L 318.24 33.33 L 320.10 30.92 C322.35,27.99 322.59,29.97 320.47,34.05 C319.15,36.62 318.00,37.81 318.00,36.62 ZM 324.05 35.56 C322.03,33.12 323.55,29.00 326.47,29.00 C327.81,29.00 329.34,29.79 329.89,30.75 C330.70,32.19 330.31,32.72 327.69,33.76 C324.61,34.97 324.60,35.00 327.29,34.64 C329.04,34.40 329.94,34.68 329.71,35.38 C329.13,37.14 325.46,37.26 324.05,35.56 ZM 328.00 31.00 C328.00,30.45 327.58,30.00 327.06,30.00 C326.54,30.00 325.84,30.45 325.50,31.00 C325.16,31.55 325.58,32.00 326.44,32.00 C327.30,32.00 328.00,31.55 328.00,31.00 ZM 331.87 36.50 C331.52,35.95 331.46,34.04 331.73,32.25 C332.11,29.74 332.71,29.01 334.36,29.03 C336.30,29.06 336.34,29.18 334.84,30.33 C333.92,31.03 333.02,32.92 332.84,34.55 C332.65,36.17 332.22,37.05 331.87,36.50 ZM 336.36 35.50 C336.04,34.67 336.07,32.87 336.41,31.50 C336.93,29.43 337.64,29.00 340.52,29.00 C343.91,29.00 344.00,29.10 344.00,33.00 C344.00,36.91 343.92,37.00 340.47,37.00 C338.25,37.00 336.72,36.44 336.36,35.50 ZM 342.00 33.06 C342.00,30.37 340.11,29.46 338.29,31.29 C336.46,33.11 337.37,35.00 340.06,35.00 C341.31,35.00 342.00,34.31 342.00,33.06 ZM 345.67 36.33 C344.62,35.28 344.89,27.19 346.00,26.50 C346.62,26.12 347.00,27.99 347.00,31.44 C347.00,37.06 346.87,37.54 345.67,36.33 ZM 348.00 31.50 C348.00,28.48 348.45,26.00 349.00,26.00 C349.55,26.00 350.00,28.48 350.00,31.50 C350.00,34.53 349.55,37.00 349.00,37.00 C348.45,37.00 348.00,34.53 348.00,31.50 ZM 352.00 36.00 C352.00,35.45 352.45,35.00 353.00,35.00 C353.55,35.00 354.00,35.45 354.00,36.00 C354.00,36.55 353.55,37.00 353.00,37.00 C352.45,37.00 352.00,36.55 352.00,36.00 ZM 360.00 36.13 C360.00,35.66 360.90,34.13 362.00,32.73 C364.83,29.13 364.59,27.63 361.33,28.45 C358.98,29.04 358.81,28.93 359.95,27.56 C361.65,25.51 364.90,25.57 365.70,27.67 C366.06,28.59 365.61,30.61 364.72,32.17 C363.34,34.57 363.32,35.00 364.55,35.00 C365.35,35.00 366.00,35.45 366.00,36.00 C366.00,36.55 364.65,37.00 363.00,37.00 C361.35,37.00 360.00,36.61 360.00,36.13 ZM 368.24 35.84 C366.48,34.08 366.70,28.49 368.58,26.93 C371.28,24.69 373.50,27.03 373.50,32.11 C373.50,35.75 373.15,36.55 371.49,36.79 C370.38,36.95 368.92,36.52 368.24,35.84 ZM 372.50 31.50 C372.50,29.46 371.95,28.42 370.75,28.19 C369.34,27.92 369.00,28.57 369.00,31.50 C369.00,34.43 369.34,35.08 370.75,34.81 C371.95,34.58 372.50,33.54 372.50,31.50 ZM 376.20 35.80 C374.48,34.08 374.72,28.48 376.58,26.93 C379.89,24.19 382.98,28.96 381.56,34.60 C380.91,37.19 378.20,37.80 376.20,35.80 ZM 380.61 30.58 C380.25,29.16 379.33,28.00 378.55,28.00 C376.55,28.00 375.68,31.53 377.04,34.08 C378.08,36.01 378.35,36.08 379.73,34.70 C380.74,33.69 381.04,32.29 380.61,30.58 ZM 387.41 34.82 C388.56,33.19 388.66,32.30 387.83,31.29 C387.22,30.56 387.03,29.64 387.41,29.25 C387.80,28.87 388.48,29.16 388.93,29.89 C389.50,30.82 389.96,30.88 390.43,30.11 C391.71,28.04 393.11,28.92 391.97,31.06 C391.14,32.60 391.17,33.50 392.07,34.59 C392.74,35.39 392.97,36.36 392.59,36.75 C392.20,37.13 391.48,36.78 390.99,35.98 C390.27,34.81 389.83,34.77 388.84,35.76 C386.78,37.82 385.78,37.15 387.41,34.82 ZM 398.00 36.39 C398.00,36.06 399.12,34.45 400.50,32.82 C401.88,31.18 403.00,29.43 403.00,28.92 C403.00,27.59 400.62,27.79 399.10,29.25 C398.05,30.26 397.87,30.12 398.16,28.51 C398.64,25.85 402.03,25.32 403.74,27.64 C405.04,29.40 405.17,29.40 406.11,27.75 C407.51,25.28 410.90,25.55 411.88,28.21 L 412.70 30.43 L 413.89 28.21 C416.65,23.04 422.44,27.99 420.41,33.79 C419.16,37.35 415.57,37.93 413.92,34.85 L 412.70 32.57 L 411.86 34.86 C410.60,38.26 406.78,37.37 405.49,33.38 L 404.48 30.26 L 402.69 32.63 C401.16,34.66 401.13,35.00 402.45,35.00 C403.30,35.00 404.00,35.45 404.00,36.00 C404.00,36.55 402.65,37.00 401.00,37.00 C399.35,37.00 398.00,36.73 398.00,36.39 ZM 411.00 31.43 C411.00,28.56 410.65,27.92 409.25,28.18 C408.10,28.40 407.39,29.62 407.19,31.76 C406.92,34.47 407.21,35.00 408.94,35.00 C410.64,35.00 411.00,34.37 411.00,31.43 ZM 418.81 31.75 C418.61,29.67 417.96,28.50 417.00,28.50 C416.04,28.50 415.39,29.67 415.19,31.75 C414.92,34.50 415.20,35.00 417.00,35.00 C418.80,35.00 419.08,34.50 418.81,31.75 ZM 352.00 30.00 C352.00,29.45 352.45,29.00 353.00,29.00 C353.55,29.00 354.00,29.45 354.00,30.00 C354.00,30.55 353.55,31.00 353.00,31.00 C352.45,31.00 352.00,30.55 352.00,30.00 ZM 334.67 605.33 C334.30,604.97 334.00,602.49 334.00,599.83 C334.00,595.19 334.11,595.00 336.85,595.00 C342.16,595.00 344.92,600.95 341.17,604.35 C339.31,606.03 335.88,606.55 334.67,605.33 ZM 339.84 603.12 C341.98,601.76 340.85,597.55 338.25,597.18 C336.28,596.90 336.00,597.30 336.00,600.43 C336.00,604.03 337.14,604.83 339.84,603.12 ZM 345.24 604.84 C342.76,602.36 344.39,597.00 347.63,597.00 C349.35,597.00 352.14,599.97 351.45,601.08 C351.14,601.59 349.78,602.00 348.44,602.00 C347.10,602.00 346.00,602.50 346.00,603.12 C346.00,603.77 347.05,604.03 348.54,603.75 C350.14,603.44 350.94,603.67 350.71,604.38 C350.18,606.00 346.69,606.29 345.24,604.84 ZM 348.73 599.40 C348.40,599.06 347.53,599.03 346.81,599.32 C346.01,599.64 346.25,599.87 347.42,599.92 C348.47,599.96 349.06,599.73 348.73,599.40 ZM 362.78 601.84 C362.21,596.35 362.76,594.56 364.54,596.04 C365.40,596.75 365.66,598.39 365.30,600.81 C364.47,606.28 363.29,606.76 362.78,601.84 ZM 367.00 600.70 C367.00,597.57 367.45,595.00 368.00,595.00 C368.55,595.00 369.00,595.70 369.00,596.56 C369.00,597.42 369.47,597.83 370.04,597.47 C371.76,596.41 374.00,599.04 374.00,602.12 C374.00,603.71 373.55,605.00 373.00,605.00 C372.45,605.00 372.00,603.61 372.00,601.92 C372.00,598.24 369.68,598.37 369.17,602.08 C368.45,607.22 367.00,606.29 367.00,600.70 ZM 376.00 605.00 C376.00,604.45 376.48,604.00 377.06,604.00 C377.64,604.00 377.84,604.45 377.50,605.00 C377.16,605.55 376.68,606.00 376.44,606.00 C376.20,606.00 376.00,605.55 376.00,605.00 ZM 386.00 601.70 C386.00,599.34 385.46,596.86 384.80,596.20 C383.87,595.27 383.98,595.00 385.30,595.00 C386.69,595.00 387.00,595.99 387.00,600.50 C387.00,603.53 386.77,606.00 386.50,606.00 C386.23,606.00 386.00,604.07 386.00,601.70 ZM 391.71 605.38 C390.40,604.07 390.98,603.34 393.25,603.42 C394.62,603.47 395.50,602.91 395.50,602.00 C395.50,601.17 394.60,600.49 393.50,600.47 C391.98,600.45 391.57,599.86 391.77,598.03 C392.12,594.94 392.36,594.75 395.16,595.29 L 397.50 595.75 L 395.21 596.50 L 392.92 597.25 L 395.02 598.72 C397.77,600.65 397.40,605.37 394.46,605.79 C393.34,605.95 392.10,605.77 391.71,605.38 ZM 399.00 605.00 C399.00,604.45 399.45,604.00 400.00,604.00 C400.55,604.00 401.00,604.45 401.00,605.00 C401.00,605.55 400.55,606.00 400.00,606.00 C399.45,606.00 399.00,605.55 399.00,605.00 ZM 403.20 604.80 C401.82,603.42 401.62,598.14 402.88,596.16 C403.34,595.43 404.80,594.98 406.11,595.16 C408.08,595.44 408.55,596.16 408.81,599.32 C409.27,604.83 406.21,607.81 403.20,604.80 ZM 407.59 601.49 C408.25,598.86 406.45,595.60 404.89,596.57 C404.40,596.87 404.00,598.67 404.00,600.56 C404.00,604.69 406.62,605.36 407.59,601.49 ZM 376.00 599.00 C376.00,598.45 376.48,598.00 377.06,598.00 C377.64,598.00 377.84,598.45 377.50,599.00 C377.16,599.55 376.68,600.00 376.44,600.00 C376.20,600.00 376.00,599.55 376.00,599.00 ZM 312.67 561.33 C311.61,560.28 311.89,554.00 313.00,554.00 C313.55,554.00 314.00,555.80 314.00,558.00 C314.00,562.09 313.83,562.50 312.67,561.33 ZM 74.07 355.76 C74.11,355.07 74.96,352.70 75.96,350.50 C77.55,347.00 77.87,346.75 78.54,348.50 C78.95,349.60 79.88,351.96 80.60,353.75 C81.93,357.09 81.34,357.94 79.18,355.78 C78.21,354.81 77.53,354.81 75.98,355.78 C74.40,356.77 74.02,356.76 74.07,355.76 ZM 68.79 222.75 C68.33,216.89 68.41,216.52 69.93,217.46 C71.23,218.26 71.36,226.66 70.10,227.44 C69.60,227.75 69.01,225.64 68.79,222.75 ZM 74.67 227.33 C73.19,225.85 74.15,225.00 76.60,225.61 C78.77,226.16 79.14,225.96 78.84,224.38 C78.64,223.35 77.80,222.50 76.99,222.50 C76.07,222.50 75.50,221.55 75.50,220.00 C75.50,218.17 76.10,217.41 77.75,217.18 C78.99,217.00 80.00,217.34 80.00,217.93 C80.00,218.52 79.32,219.00 78.50,219.00 C76.30,219.00 76.67,220.68 79.00,221.29 C81.22,221.87 81.67,224.93 79.80,226.80 C78.49,228.11 75.73,228.39 74.67,227.33 ZM 85.80 225.46 C83.50,220.42 87.78,214.91 91.55,218.04 C93.30,219.50 93.47,225.13 91.80,226.80 C89.82,228.78 87.03,228.16 85.80,225.46 ZM 91.00 222.43 C91.00,219.57 90.65,218.92 89.26,219.19 C86.16,219.78 86.35,226.00 89.47,226.00 C90.56,226.00 91.00,224.97 91.00,222.43 ZM 397.71 530.38 C396.36,529.03 397.01,528.19 399.00,528.71 C401.58,529.39 401.54,528.20 398.87,525.37 C397.67,524.08 397.01,522.43 397.34,521.55 C398.01,519.82 401.54,519.45 402.50,521.00 C402.84,521.55 402.19,522.00 401.06,522.00 C398.43,522.00 398.43,523.16 401.06,524.81 C403.70,526.46 403.30,530.38 400.46,530.79 C399.34,530.95 398.10,530.77 397.71,530.38 ZM 405.04 529.07 C403.72,526.60 403.69,521.31 405.00,520.50 C405.61,520.12 406.00,521.66 406.00,524.44 C406.00,528.33 406.29,529.00 408.00,529.00 C409.70,529.00 410.00,528.33 410.00,524.50 C410.00,522.03 410.45,520.00 411.00,520.00 C412.31,520.00 412.29,526.59 410.96,529.07 C410.40,530.13 409.06,531.00 408.00,531.00 C406.94,531.00 405.60,530.13 405.04,529.07 ZM 414.14 525.75 C414.01,520.23 414.10,520.00 416.53,520.00 C419.58,520.00 420.79,522.51 419.08,525.25 C418.19,526.67 418.14,527.54 418.92,528.32 C421.15,530.55 419.90,531.26 417.58,529.08 L 415.16 526.81 L 414.72 529.15 C414.47,530.44 414.21,528.91 414.14,525.75 ZM 418.50 523.99 C418.85,523.44 418.40,522.71 417.52,522.37 C415.61,521.63 414.54,522.44 415.46,523.93 C416.29,525.28 417.69,525.30 418.50,523.99 ZM 422.00 525.56 C422.00,520.30 422.13,520.00 424.50,520.00 C425.88,520.00 427.00,520.45 427.00,521.00 C427.00,521.55 426.33,522.00 425.50,522.00 C424.67,522.00 424.00,522.45 424.00,523.00 C424.00,523.55 424.67,524.00 425.50,524.00 C426.33,524.00 427.00,524.45 427.00,525.00 C427.00,525.55 426.33,526.00 425.50,526.00 C424.67,526.00 424.00,526.87 424.00,527.94 C424.00,529.01 423.55,530.16 423.00,530.50 C422.38,530.88 422.00,529.01 422.00,525.56 ZM 428.00 530.58 C428.00,529.20 432.08,521.00 432.77,521.00 C433.91,521.00 438.25,530.09 437.47,530.86 C437.13,531.20 436.41,530.70 435.88,529.74 C434.68,527.61 431.15,527.45 430.36,529.50 C429.85,530.82 428.00,531.67 428.00,530.58 ZM 434.00 525.00 C434.00,524.45 433.55,524.00 433.00,524.00 C432.45,524.00 432.00,524.45 432.00,525.00 C432.00,525.55 432.45,526.00 433.00,526.00 C433.55,526.00 434.00,525.55 434.00,525.00 ZM 439.37 528.44 C437.80,526.04 437.77,525.50 439.10,523.13 C440.24,521.10 441.35,520.50 443.96,520.50 C445.81,520.50 447.51,521.04 447.73,521.70 C448.01,522.54 447.11,522.73 444.67,522.33 C441.82,521.87 441.10,522.12 440.58,523.75 C439.43,527.36 440.95,529.23 444.66,528.79 C446.73,528.55 447.90,528.80 447.69,529.45 C447.50,530.03 445.95,530.64 444.23,530.81 C441.78,531.05 440.75,530.55 439.37,528.44 ZM 450.00 525.50 C450.00,520.06 450.03,520.00 453.00,520.00 C454.65,520.00 456.00,520.45 456.00,521.00 C456.00,521.55 455.10,522.00 454.00,522.00 C452.83,522.00 452.00,522.67 452.00,523.61 C452.00,524.61 452.55,525.00 453.47,524.65 C454.28,524.34 455.20,524.52 455.53,525.04 C455.85,525.57 455.19,526.00 454.06,526.00 C452.90,526.00 452.00,526.65 452.00,527.50 C452.00,528.33 452.89,529.00 454.00,529.00 C455.10,529.00 456.00,529.45 456.00,530.00 C456.00,530.55 454.65,531.00 453.00,531.00 C450.03,531.00 450.00,530.94 450.00,525.50 ZM 461.20 525.75 C461.48,520.85 461.68,520.48 464.26,520.18 C467.54,519.81 468.94,522.27 467.10,525.21 C466.15,526.73 466.15,527.48 467.09,528.60 C467.75,529.40 467.97,530.37 467.57,530.76 C467.18,531.15 466.00,530.35 464.95,528.99 L 463.04 526.50 L 463.02 528.75 C463.01,529.99 462.53,531.00 461.95,531.00 C461.31,531.00 461.01,528.95 461.20,525.75 ZM 465.77 523.19 C465.99,522.53 465.45,522.00 464.58,522.00 C463.71,522.00 463.00,522.71 463.00,523.58 C463.00,525.35 465.15,525.04 465.77,523.19 ZM 470.33 528.38 C468.80,526.04 468.77,525.49 470.09,523.13 C472.86,518.17 480.00,519.88 480.00,525.50 C480.00,530.97 473.33,532.96 470.33,528.38 ZM 477.50 525.50 C477.50,522.84 477.17,522.50 474.51,522.50 C472.43,522.50 471.42,523.05 471.18,524.31 C470.55,527.55 471.82,529.15 474.74,528.82 C477.07,528.55 477.50,528.03 477.50,525.50 ZM 482.04 529.07 C480.74,526.65 480.68,521.31 481.94,520.54 C482.46,520.22 483.02,521.87 483.19,524.22 C483.42,527.33 483.97,528.57 485.25,528.81 C486.71,529.09 487.00,528.39 487.00,524.57 C487.00,522.06 487.45,520.00 488.00,520.00 C489.09,520.00 489.37,526.86 488.39,529.42 C487.54,531.63 483.28,531.40 482.04,529.07 ZM 491.33 528.38 C489.80,526.04 489.77,525.50 491.10,523.13 C492.24,521.10 493.35,520.50 495.96,520.50 C497.81,520.50 499.49,520.97 499.68,521.55 C499.90,522.20 498.71,522.45 496.56,522.20 C493.52,521.84 493.01,522.11 492.45,524.34 C492.10,525.74 492.11,527.36 492.46,527.94 C493.30,529.29 499.00,529.34 499.00,528.00 C499.00,527.45 498.55,527.00 498.00,527.00 C497.45,527.00 497.00,526.55 497.00,526.00 C497.00,525.45 497.90,525.00 499.00,525.00 C500.26,525.00 501.00,525.67 501.00,526.80 C501.00,531.53 494.13,532.66 491.33,528.38 ZM 503.25 525.50 C503.24,522.20 503.43,520.25 503.67,521.17 C503.92,522.09 505.22,523.57 506.56,524.45 C508.97,526.02 509.00,526.00 509.00,522.96 C509.00,521.16 509.42,520.14 510.00,520.50 C510.55,520.84 511.00,523.09 511.00,525.50 C511.00,527.91 510.55,530.16 510.00,530.50 C509.45,530.84 509.00,530.44 509.00,529.62 C509.00,528.79 507.99,527.40 506.75,526.53 C504.57,524.99 504.48,525.04 503.88,528.22 C503.42,530.64 503.26,529.93 503.25,525.50 ZM 512.75 530.43 C511.68,529.34 511.82,521.00 512.91,521.00 C513.41,521.00 514.99,522.38 516.41,524.08 L 519.00 527.15 L 519.00 523.52 C519.00,521.35 519.40,520.13 520.00,520.50 C521.15,521.21 521.38,531.00 520.25,530.99 C519.84,530.99 518.38,529.33 517.00,527.30 L 514.50 523.62 L 514.00 527.40 C513.72,529.49 513.16,530.85 512.75,530.43 ZM 522.40 529.61 C522.11,528.84 522.01,526.48 522.18,524.36 C522.47,520.81 522.76,520.47 525.75,520.19 C527.58,520.01 529.00,520.34 529.00,520.94 C529.00,521.52 527.88,522.00 526.50,522.00 C525.12,522.00 524.00,522.45 524.00,523.00 C524.00,523.55 524.90,524.00 526.00,524.00 C527.10,524.00 528.00,524.45 528.00,525.00 C528.00,525.55 527.10,526.00 526.00,526.00 C524.89,526.00 524.00,526.67 524.00,527.50 C524.00,528.43 524.94,529.00 526.50,529.00 C527.88,529.00 529.00,529.45 529.00,530.00 C529.00,531.54 523.01,531.18 522.40,529.61 ZM 530.00 529.59 C530.00,528.68 530.70,528.37 532.00,528.71 C534.62,529.40 534.58,527.38 531.94,525.97 C529.17,524.48 529.71,520.61 532.75,520.18 C534.25,519.97 535.00,520.38 535.00,521.40 C535.00,522.36 534.43,522.72 533.50,522.36 C531.40,521.55 531.63,522.98 534.03,525.53 C535.24,526.82 535.80,528.35 535.42,529.34 C534.64,531.37 530.00,531.58 530.00,529.59 ZM 537.71 530.38 C536.36,529.03 537.01,528.19 539.00,528.71 C541.58,529.39 541.54,528.20 538.87,525.37 C537.67,524.08 537.01,522.43 537.34,521.55 C538.10,519.58 542.00,519.51 542.00,521.47 C542.00,522.36 541.41,522.71 540.50,522.36 C538.33,521.53 538.66,523.26 541.06,525.32 C542.20,526.30 542.98,527.86 542.80,528.80 C542.47,530.55 538.97,531.64 537.71,530.38 ZM 548.00 526.00 C548.00,523.25 548.42,521.00 548.93,521.00 C549.44,521.00 551.01,522.46 552.42,524.25 L 554.98 527.50 L 555.10 523.50 L 555.21 519.50 L 556.18 523.83 C557.70,530.62 556.54,531.95 552.99,527.48 L 550.00 523.72 L 550.00 527.36 C550.00,529.36 549.55,531.00 549.00,531.00 C548.45,531.00 548.00,528.75 548.00,526.00 ZM 559.04 529.75 C559.05,529.06 559.71,527.38 560.50,526.00 C562.43,522.63 562.35,522.00 560.00,522.00 C558.90,522.00 558.00,521.55 558.00,521.00 C558.00,520.45 559.58,520.00 561.50,520.00 C563.42,520.00 565.00,520.19 565.00,520.42 C565.00,521.25 559.88,531.00 559.45,531.00 C559.20,531.00 559.02,530.44 559.04,529.75 ZM 397.08 513.00 C397.08,512.17 398.16,509.48 399.46,507.00 L 401.84 502.50 L 403.90 507.00 C406.29,512.22 406.73,515.54 404.67,512.84 C402.80,510.38 400.31,510.24 398.59,512.50 C397.46,513.98 397.07,514.11 397.08,513.00 ZM 407.71 513.38 C406.30,511.96 407.04,510.88 409.00,511.50 C411.69,512.35 411.59,510.30 408.83,508.07 C407.46,506.96 406.90,505.70 407.30,504.66 C408.00,502.84 411.51,502.40 412.50,504.00 C412.84,504.55 412.12,505.00 410.88,505.00 L 408.65 505.00 L 410.92 507.41 C412.16,508.74 413.02,510.65 412.83,511.66 C412.48,513.52 409.01,514.68 407.71,513.38 ZM 419.67 513.33 C418.62,512.28 418.89,504.19 420.00,503.50 C420.62,503.12 421.00,504.99 421.00,508.44 C421.00,514.06 420.87,514.54 419.67,513.33 ZM 422.70 513.37 C421.30,511.96 422.05,510.88 424.00,511.50 C426.69,512.35 426.59,510.30 423.83,508.07 C422.46,506.96 421.90,505.70 422.30,504.66 C423.03,502.75 426.53,502.43 427.61,504.17 C428.08,504.94 427.80,505.14 426.76,504.74 C424.13,503.73 423.86,505.22 426.21,507.72 C427.95,509.58 428.20,510.46 427.36,511.79 C426.18,513.67 423.80,514.47 422.70,513.37 ZM 433.62 512.86 C433.21,511.95 433.01,509.48 433.18,507.36 C433.47,503.81 433.74,503.50 436.50,503.50 C439.03,503.50 439.50,503.89 439.50,506.00 C439.50,507.81 438.90,508.59 437.31,508.81 C435.80,509.03 435.01,509.95 434.75,511.81 C434.46,513.92 434.22,514.15 433.62,512.86 ZM 438.50 506.00 C438.84,505.45 438.19,505.00 437.06,505.00 C435.93,505.00 435.00,505.45 435.00,506.00 C435.00,506.55 435.65,507.00 436.44,507.00 C437.23,507.00 438.16,506.55 438.50,506.00 ZM 442.15 508.75 C442.01,503.22 442.10,503.00 444.53,503.00 C447.51,503.00 448.80,505.49 447.18,508.09 C446.45,509.25 446.40,510.13 447.02,510.51 C447.56,510.85 447.98,511.88 447.96,512.81 C447.94,514.07 447.32,513.76 445.55,511.59 L 443.16 508.67 L 442.73 511.59 C442.49,513.20 442.23,511.93 442.15,508.75 ZM 447.00 505.94 C447.00,505.42 446.10,505.00 445.00,505.00 C442.79,505.00 442.28,506.57 444.25,507.28 C445.76,507.82 447.00,507.22 447.00,505.94 ZM 451.52 512.37 C447.35,508.20 452.66,500.22 457.49,503.40 C461.68,506.17 459.84,514.00 455.00,514.00 C453.98,514.00 452.41,513.27 451.52,512.37 ZM 457.96 510.55 C459.43,508.78 458.51,505.41 456.32,504.57 C454.60,503.91 451.00,506.55 451.00,508.45 C451.00,511.67 455.83,513.12 457.96,510.55 ZM 462.14 508.75 L 462.00 503.00 L 465.06 503.00 C466.84,503.00 467.86,503.42 467.50,504.00 C467.16,504.55 466.23,505.00 465.44,505.00 C464.65,505.00 464.00,505.45 464.00,506.00 C464.00,506.55 464.67,507.00 465.50,507.00 C467.66,507.00 467.35,508.68 465.08,509.27 C464.03,509.54 462.97,510.83 462.72,512.13 C462.47,513.44 462.21,511.91 462.14,508.75 ZM 469.31 508.50 C469.32,505.20 469.50,503.97 469.72,505.77 C469.95,507.57 469.94,510.27 469.71,511.77 C469.49,513.27 469.30,511.80 469.31,508.50 ZM 472.00 508.50 C472.00,505.48 472.45,503.00 473.00,503.00 C473.55,503.00 474.00,505.02 474.00,507.50 C474.00,510.83 474.39,512.00 475.50,512.00 C476.33,512.00 477.00,512.45 477.00,513.00 C477.00,513.55 475.88,514.00 474.50,514.00 C472.14,514.00 472.00,513.70 472.00,508.50 ZM 479.00 508.50 C479.00,503.06 479.03,503.00 482.00,503.00 C483.65,503.00 485.00,503.45 485.00,504.00 C485.00,504.55 483.88,505.00 482.50,505.00 C481.12,505.00 480.00,505.45 480.00,506.00 C480.00,506.55 481.12,507.00 482.50,507.00 C483.88,507.00 485.00,507.45 485.00,508.00 C485.00,508.55 483.88,509.00 482.50,509.00 C480.94,509.00 480.00,509.57 480.00,510.50 C480.00,511.43 480.94,512.00 482.50,512.00 C483.88,512.00 485.00,512.45 485.00,513.00 C485.00,513.55 483.65,514.00 482.00,514.00 C479.03,514.00 479.00,513.94 479.00,508.50 ZM 415.24 510.34 C414.55,510.06 414.23,509.44 414.53,508.96 C415.17,507.91 418.00,508.84 418.00,510.11 C418.00,511.07 417.23,511.13 415.24,510.34 ZM 559.14 476.86 C558.44,475.73 558.08,474.59 558.35,474.32 C558.62,474.05 559.36,474.81 560.00,476.00 C561.51,478.82 560.81,479.53 559.14,476.86 ZM 427.67 454.33 C426.61,453.28 426.89,447.00 428.00,447.00 C428.55,447.00 429.00,448.09 429.00,449.42 C429.00,450.75 429.27,452.55 429.61,453.42 C430.21,455.00 428.93,455.60 427.67,454.33 ZM 436.00 452.63 C436.00,451.25 436.50,449.81 437.11,449.43 C437.85,448.97 437.99,449.44 437.54,450.87 C437.14,452.14 437.30,453.00 437.93,453.00 C438.52,453.00 439.00,452.19 439.00,451.19 C439.00,450.20 439.66,448.51 440.47,447.44 C442.30,445.01 442.32,445.49 440.58,450.50 C438.96,455.17 436.00,456.55 436.00,452.63 ZM 432.00 448.00 C432.00,447.45 432.45,447.00 433.00,447.00 C433.55,447.00 434.00,447.45 434.00,448.00 C434.00,448.55 433.55,449.00 433.00,449.00 C432.45,449.00 432.00,448.55 432.00,448.00 ZM 336.19 318.26 C336.41,315.64 337.03,314.42 338.25,314.18 C339.21,314.00 340.00,314.36 340.00,314.99 C340.00,315.61 339.58,315.86 339.07,315.54 C338.56,315.23 337.86,315.42 337.51,315.98 C337.16,316.54 337.58,317.00 338.44,317.00 C339.30,317.00 340.00,317.41 340.00,317.92 C340.00,318.42 340.27,319.55 340.61,320.42 C340.94,321.29 340.72,322.00 340.11,322.00 C339.50,322.00 339.00,321.33 339.00,320.50 C339.00,319.67 338.56,319.00 338.03,319.00 C337.50,319.00 337.32,319.67 337.64,320.50 C337.95,321.33 337.69,322.00 337.05,322.00 C336.31,322.00 335.99,320.62 336.19,318.26 ZM 344.99 319.49 C344.47,318.10 343.06,315.65 341.86,314.03 C340.06,311.60 339.91,310.82 340.96,309.55 C341.65,308.71 342.67,308.30 343.22,308.64 C343.84,309.02 343.75,309.54 342.98,310.01 C341.09,311.18 342.79,313.00 345.81,313.03 C348.27,313.06 348.35,313.18 346.73,314.40 C345.12,315.63 345.21,319.02 346.86,318.99 C347.80,318.96 353.00,309.25 353.00,307.50 C353.00,306.67 353.89,306.00 355.00,306.00 C356.10,306.00 357.00,306.45 357.00,307.00 C357.00,307.55 356.66,308.00 356.23,308.00 C355.49,308.00 349.00,318.23 349.00,319.41 C349.00,319.73 350.35,320.00 352.00,320.00 C353.65,320.00 355.00,320.45 355.00,321.00 C355.00,321.55 352.96,322.00 350.48,322.00 C346.56,322.00 345.82,321.66 344.99,319.49 ZM 428.25 267.34 C426.15,266.49 426.86,265.01 429.25,265.26 C430.69,265.41 431.50,264.96 431.50,264.00 C431.50,263.17 430.71,262.56 429.75,262.64 C427.95,262.78 427.54,261.35 428.61,258.58 C429.27,256.86 433.00,256.37 433.00,258.00 C433.00,258.55 432.33,259.00 431.50,259.00 C430.67,259.00 430.00,259.45 430.00,260.00 C430.00,260.55 430.63,261.00 431.39,261.00 C432.16,261.00 433.06,261.71 433.39,262.58 C434.21,264.70 434.22,264.64 432.43,266.43 C430.79,268.07 430.32,268.17 428.25,267.34 ZM 439.10 266.62 C437.98,265.27 438.26,258.40 439.49,257.18 C440.70,255.97 443.43,258.74 444.29,262.04 C445.00,264.77 444.83,265.65 443.39,266.70 C441.15,268.34 440.52,268.33 439.10,266.62 ZM 442.54 264.93 C443.46,263.44 442.39,262.63 440.48,263.37 C439.60,263.71 439.15,264.44 439.50,264.99 C440.31,266.30 441.71,266.28 442.54,264.93 ZM 442.00 260.00 C442.00,259.45 441.55,259.00 441.00,259.00 C440.45,259.00 440.00,259.45 440.00,260.00 C440.00,260.55 440.45,261.00 441.00,261.00 C441.55,261.00 442.00,260.55 442.00,260.00 ZM 419.00 266.17 C419.00,265.72 420.12,264.29 421.50,263.00 C424.77,259.93 424.67,258.62 421.25,259.46 C418.67,260.09 418.60,260.03 420.17,258.43 C423.77,254.77 426.60,259.27 423.49,263.71 C422.09,265.71 422.14,265.89 424.24,266.29 C425.65,266.56 425.09,266.78 422.75,266.86 C420.69,266.94 419.00,266.63 419.00,266.17 ZM 418.74 237.53 C415.82,234.01 415.91,231.52 418.98,230.71 C420.96,230.20 423.00,231.65 423.00,233.58 C423.00,234.23 423.90,235.00 425.00,235.29 C426.10,235.58 427.00,236.31 427.00,236.93 C427.00,237.63 426.03,237.80 424.39,237.38 C422.07,236.80 421.85,236.96 422.46,238.86 C423.43,241.92 421.94,241.38 418.74,237.53 ZM 421.00 234.00 C421.00,233.45 420.33,233.00 419.50,233.00 C418.67,233.00 418.00,233.45 418.00,234.00 C418.00,234.55 418.67,235.00 419.50,235.00 C420.33,235.00 421.00,234.55 421.00,234.00 ZM 429.34 231.56 C429.69,230.63 428.84,229.65 426.95,228.82 C424.06,227.54 423.03,224.72 425.00,223.50 C425.55,223.16 426.00,223.86 426.00,225.06 C426.00,226.89 426.24,227.04 427.50,226.00 C428.35,225.30 429.00,225.19 429.00,225.76 C429.00,226.31 429.85,226.99 430.88,227.26 C432.31,227.63 432.65,228.39 432.27,230.38 C431.99,231.82 431.10,233.00 430.28,233.00 C429.39,233.00 429.01,232.42 429.34,231.56 ZM 435.00 226.56 C435.00,225.70 435.45,225.00 436.00,225.00 C436.55,225.00 437.00,225.42 437.00,225.94 C437.00,226.46 436.55,227.16 436.00,227.50 C435.45,227.84 435.00,227.42 435.00,226.56 ZM 437.00 223.02 C437.00,222.41 436.21,222.04 435.25,222.21 C433.93,222.43 433.42,221.70 433.19,219.25 C433.00,217.31 433.33,216.00 434.00,216.00 C434.70,216.00 434.89,216.87 434.50,218.25 C434.02,219.96 434.11,220.15 434.88,219.03 C435.75,217.76 435.98,217.79 436.55,219.27 C436.91,220.22 437.61,220.74 438.10,220.44 C438.60,220.13 439.00,220.56 439.00,221.38 C439.00,222.21 438.55,223.16 438.00,223.50 C437.45,223.84 437.00,223.62 437.00,223.02 ZM 572.18 250.45 C572.08,248.22 571.51,245.91 570.91,245.31 C570.13,244.53 570.15,244.03 570.98,243.51 C572.81,242.38 573.14,243.42 572.74,249.14 C572.43,253.61 572.34,253.83 572.18,250.45 ZM 577.67 253.33 C576.36,252.02 577.03,251.20 579.00,251.71 C581.25,252.30 581.90,249.59 579.75,248.58 C578.75,248.12 578.75,247.88 579.75,247.42 C581.79,246.47 581.17,244.72 579.00,245.29 C576.65,245.90 576.28,244.22 578.57,243.34 C580.77,242.49 582.44,244.51 582.64,248.28 C582.87,252.74 579.99,255.66 577.67,253.33 ZM 585.00 253.00 C585.00,252.45 585.48,252.00 586.06,252.00 C586.64,252.00 586.84,252.45 586.50,253.00 C586.16,253.55 585.68,254.00 585.44,254.00 C585.20,254.00 585.00,253.55 585.00,253.00 ZM 588.67 253.33 C587.19,251.85 588.15,251.00 590.60,251.61 C592.78,252.16 593.14,251.96 592.81,250.38 C592.58,249.22 591.74,248.62 590.64,248.81 C589.22,249.06 588.92,248.55 589.18,246.31 C589.41,244.28 590.12,243.41 591.75,243.18 C592.99,243.00 594.00,243.34 594.00,243.93 C594.00,244.52 593.10,245.00 592.00,245.00 C590.90,245.00 590.00,245.45 590.00,246.00 C590.00,246.55 590.66,247.00 591.46,247.00 C593.59,247.00 595.04,250.18 593.87,252.28 C592.90,253.99 589.93,254.60 588.67,253.33 ZM 555.98 161.43 C555.44,160.02 555.00,158.44 555.00,157.91 C555.00,157.38 553.42,153.81 551.49,149.98 C549.56,146.14 548.40,143.00 548.91,143.00 C550.12,143.00 554.34,151.95 556.34,158.75 C557.94,164.17 557.70,165.96 555.98,161.43 ZM 538.25 131.50 C536.17,129.15 536.79,127.50 539.00,129.50 C541.02,131.33 541.63,133.03 540.25,132.96 C539.84,132.94 538.94,132.29 538.25,131.50 ZM 533.46 126.93 C532.38,125.19 533.61,124.82 534.98,126.48 C535.77,127.43 535.84,128.00 535.18,128.00 C534.60,128.00 533.82,127.52 533.46,126.93 ZM 527.29 122.58 C525.52,121.44 524.06,120.15 524.04,119.72 C523.99,118.73 529.66,121.64 530.54,123.06 C531.67,124.90 530.62,124.74 527.29,122.58 ZM 521.00 117.94 C521.00,117.36 521.45,117.16 522.00,117.50 C522.55,117.84 523.00,118.32 523.00,118.56 C523.00,118.80 522.55,119.00 522.00,119.00 C521.45,119.00 521.00,118.52 521.00,117.94 ZM 516.75 117.31 C515.79,117.06 515.00,116.39 515.00,115.82 C515.00,115.25 515.71,115.06 516.58,115.39 C517.45,115.73 518.58,116.00 519.08,116.00 C519.59,116.00 520.00,116.45 520.00,117.00 C520.00,118.04 519.66,118.07 516.75,117.31 ZM 508.00 114.28 C506.62,114.03 505.07,113.42 504.55,112.92 C503.10,111.52 507.04,111.88 510.50,113.46 C513.51,114.84 512.67,115.12 508.00,114.28 ZM 498.00 112.00 C496.86,111.26 497.28,111.03 499.75,111.02 C501.54,111.01 503.00,111.45 503.00,112.00 C503.00,113.27 499.97,113.27 498.00,112.00 ZM 361.26 111.28 C362.78,111.05 365.03,111.06 366.26,111.30 C367.49,111.53 366.25,111.72 363.50,111.71 C360.75,111.71 359.74,111.51 361.26,111.28 ZM 370.76 111.29 C372.01,111.05 373.81,111.06 374.76,111.31 C375.72,111.56 374.70,111.76 372.50,111.75 C370.30,111.74 369.52,111.53 370.76,111.29 ZM 385.77 111.28 C387.57,111.05 390.27,111.06 391.77,111.29 C393.27,111.51 391.80,111.70 388.50,111.69 C385.20,111.68 383.97,111.50 385.77,111.28 ZM 401.76 111.29 C403.01,111.05 404.81,111.06 405.76,111.31 C406.72,111.56 405.70,111.76 403.50,111.75 C401.30,111.74 400.52,111.53 401.76,111.29 ZM 410.75 111.34 C411.44,111.06 412.56,111.06 413.25,111.34 C413.94,111.62 413.38,111.84 412.00,111.84 C410.62,111.84 410.06,111.62 410.75,111.34 ZM 416.81 111.32 C417.53,111.03 418.40,111.06 418.73,111.40 C419.06,111.73 418.47,111.96 417.42,111.92 C416.25,111.87 416.01,111.64 416.81,111.32 ZM 421.00 111.62 C421.00,110.77 426.09,110.33 426.58,111.13 C426.88,111.61 425.74,112.00 424.06,112.00 C422.38,112.00 421.00,111.83 421.00,111.62 ZM 432.25 111.28 C433.76,111.05 436.24,111.05 437.75,111.28 C439.26,111.51 438.02,111.70 435.00,111.70 C431.98,111.70 430.74,111.51 432.25,111.28 ZM 443.75 111.34 C444.44,111.06 445.56,111.06 446.25,111.34 C446.94,111.62 446.38,111.84 445.00,111.84 C443.62,111.84 443.06,111.62 443.75,111.34 ZM 449.76 111.29 C451.01,111.05 452.81,111.06 453.76,111.31 C454.72,111.56 453.70,111.76 451.50,111.75 C449.30,111.74 448.52,111.53 449.76,111.29 ZM 457.81 111.32 C458.53,111.03 459.40,111.06 459.73,111.40 C460.06,111.73 459.47,111.96 458.42,111.92 C457.25,111.87 457.01,111.64 457.81,111.32 ZM 462.25 111.31 C463.21,111.06 464.79,111.06 465.75,111.31 C466.71,111.56 465.92,111.77 464.00,111.77 C462.08,111.77 461.29,111.56 462.25,111.31 ZM 477.81 111.32 C478.53,111.03 479.40,111.06 479.73,111.40 C480.06,111.73 479.47,111.96 478.42,111.92 C477.25,111.87 477.01,111.64 477.81,111.32 ZM 518.35 293.46 C518.02,292.61 518.03,291.63 518.38,291.29 C518.72,290.95 519.00,291.19 519.00,291.83 C519.00,292.48 519.67,293.00 520.50,293.00 C521.33,293.00 522.00,292.33 522.00,291.50 C522.00,290.67 521.43,290.00 520.74,290.00 C518.97,290.00 517.03,286.57 517.95,285.07 C518.38,284.39 519.80,283.98 521.11,284.16 C523.15,284.45 523.52,285.09 523.63,288.50 C523.70,290.70 523.31,293.06 522.76,293.75 C521.38,295.47 519.06,295.32 518.35,293.46 ZM 522.00 286.42 C522.00,285.55 521.47,285.01 520.81,285.23 C518.96,285.85 518.65,288.00 520.42,288.00 C521.29,288.00 522.00,287.29 522.00,286.42 ZM 530.20 293.80 C528.36,291.96 528.67,285.06 530.64,284.31 C534.77,282.72 537.85,290.00 534.48,293.37 C532.54,295.32 531.79,295.39 530.20,293.80 ZM 534.00 289.56 C534.00,285.61 532.78,284.36 531.00,286.50 C529.45,288.37 530.53,293.00 532.52,293.00 C533.54,293.00 534.00,291.93 534.00,289.56 ZM 651.41 205.96 C653.02,205.48 654.70,205.32 655.16,205.60 C655.62,205.89 656.00,203.39 656.00,200.06 C656.00,196.69 656.44,194.00 657.00,194.00 C657.55,194.00 658.00,196.64 658.00,199.93 C658.00,205.64 658.11,205.88 660.75,206.28 C662.26,206.51 660.12,206.73 656.00,206.76 C650.25,206.81 649.18,206.63 651.41,205.96 ZM 733.52 205.19 C733.24,204.90 733.00,203.22 733.00,201.46 C733.00,198.06 734.11,196.67 737.70,195.57 C739.60,194.99 739.98,195.36 740.56,198.46 C740.97,200.63 740.78,202.56 740.08,203.40 C738.87,204.86 734.41,206.08 733.52,205.19 ZM 738.97 202.06 C739.54,200.99 739.62,199.88 739.15,199.59 C738.68,199.30 737.79,200.17 737.17,201.53 C735.84,204.45 737.44,204.92 738.97,202.06 ZM 736.30 199.94 C736.65,198.63 736.42,198.03 735.67,198.28 C734.23,198.75 733.48,202.00 734.81,202.00 C735.34,202.00 736.01,201.07 736.30,199.94 ZM 673.14 200.18 C673.00,194.95 673.04,194.87 675.74,195.18 C679.41,195.61 679.95,198.61 676.62,200.13 C675.24,200.76 673.92,202.22 673.69,203.39 C673.46,204.55 673.21,203.11 673.14,200.18 ZM 677.44 198.10 C677.74,197.61 677.36,196.97 676.59,196.67 C675.13,196.11 674.00,196.76 674.00,198.17 C674.00,199.28 676.74,199.23 677.44,198.10 ZM 683.00 199.94 L 683.00 194.87 L 686.25 195.19 C688.73,195.43 689.50,195.97 689.50,197.50 C689.50,198.61 688.50,199.94 687.25,200.49 C686.01,201.03 685.00,202.27 685.00,203.24 C685.00,204.21 684.55,205.00 684.00,205.00 C683.45,205.00 683.00,202.72 683.00,199.94 ZM 687.77 197.81 C687.15,195.96 685.00,195.65 685.00,197.42 C685.00,198.29 685.71,199.00 686.58,199.00 C687.45,199.00 687.99,198.47 687.77,197.81 ZM 691.03 204.21 C691.00,202.81 694.76,195.00 695.47,195.00 C696.29,195.00 700.02,204.31 699.44,204.90 C699.11,205.22 698.41,204.70 697.88,203.74 C696.63,201.51 694.09,201.51 692.39,203.75 C691.53,204.88 691.05,205.05 691.03,204.21 ZM 696.00 199.00 C696.00,198.45 695.80,198.00 695.56,198.00 C695.32,198.00 694.84,198.45 694.50,199.00 C694.16,199.55 694.36,200.00 694.94,200.00 C695.52,200.00 696.00,199.55 696.00,199.00 ZM 702.08 203.42 C702.13,202.25 702.36,202.01 702.68,202.81 C702.97,203.53 702.94,204.40 702.60,204.73 C702.27,205.06 702.04,204.47 702.08,203.42 ZM 708.90 202.82 C707.78,200.72 707.69,200.71 706.38,202.50 C704.46,205.12 703.83,203.94 704.59,199.13 C705.19,195.42 705.54,195.00 708.07,195.00 C710.80,195.00 710.88,195.16 710.77,200.00 C710.71,202.75 710.53,205.00 710.36,205.00 C710.20,205.00 709.55,204.02 708.90,202.82 ZM 710.00 197.88 C710.00,197.40 709.10,197.00 708.00,197.00 C706.90,197.00 706.00,197.63 706.00,198.41 C706.00,199.32 706.70,199.63 708.00,199.29 C709.10,199.00 710.00,198.37 710.00,197.88 ZM 713.32 199.74 C713.15,194.95 713.24,194.71 714.42,196.87 L 715.70 199.25 L 716.31 196.92 C716.65,195.64 717.22,194.88 717.58,195.25 C718.25,195.92 714.91,205.00 714.00,204.99 C713.72,204.99 713.42,202.63 713.32,199.74 ZM 723.00 199.94 C723.00,196.55 723.36,195.10 724.09,195.56 C724.75,195.96 724.93,197.57 724.54,199.61 C723.99,202.57 724.17,203.00 725.95,203.00 C727.08,203.00 728.00,203.45 728.00,204.00 C728.00,204.55 726.88,205.00 725.50,205.00 C723.16,205.00 723.00,204.67 723.00,199.94 ZM 494.53 190.79 C492.93,186.79 492.94,186.52 494.66,185.26 C497.57,183.13 499.50,184.15 499.50,187.81 C499.50,189.60 500.16,191.48 500.97,191.98 C501.78,192.48 502.11,193.22 501.70,193.63 C501.30,194.03 500.43,193.83 499.78,193.18 C498.12,191.52 496.67,191.71 497.36,193.50 C497.68,194.32 497.55,195.00 497.08,195.00 C496.60,195.00 495.46,193.11 494.53,190.79 ZM 498.41 188.14 C498.71,187.67 498.69,187.02 498.38,186.71 C497.59,185.93 495.00,187.00 495.00,188.11 C495.00,189.25 497.71,189.28 498.41,188.14 ZM 505.67 191.33 C504.42,190.08 505.00,188.91 506.71,189.21 C507.74,189.38 508.58,188.74 508.82,187.60 C509.11,186.18 508.79,185.87 507.54,186.35 C506.22,186.85 506.00,186.56 506.50,184.99 C507.22,182.74 506.04,182.38 504.10,184.25 C503.05,185.26 502.87,185.12 503.16,183.50 C503.78,180.07 507.57,180.43 509.40,184.10 C511.49,188.28 511.42,189.71 509.07,190.96 C506.79,192.18 506.54,192.21 505.67,191.33 ZM 477.94 172.06 C475.06,169.63 474.68,168.85 475.60,167.33 C477.38,164.38 480.83,164.43 481.97,167.43 C482.51,168.84 483.41,170.00 483.98,170.00 C484.54,170.00 485.00,170.46 485.00,171.02 C485.00,171.63 483.90,171.76 482.25,171.35 C479.76,170.73 479.63,170.83 480.89,172.36 C483.29,175.27 481.53,175.09 477.94,172.06 ZM 479.75 167.42 C478.80,166.46 476.89,168.01 477.60,169.16 C478.02,169.84 478.58,169.82 479.30,169.10 C479.88,168.52 480.09,167.76 479.75,167.42 ZM 489.18 163.79 C489.09,157.50 486.11,155.99 484.67,161.50 C484.38,162.60 484.23,161.93 484.32,160.00 C484.55,155.42 487.73,155.14 489.96,159.50 C490.81,161.15 491.61,162.69 491.75,162.92 C492.24,163.72 497.00,158.64 497.00,157.33 C497.00,156.60 496.10,156.00 495.00,156.00 C493.90,156.00 493.00,156.45 493.00,157.00 C493.00,158.68 491.55,158.12 490.17,155.90 C489.06,154.12 489.12,153.53 490.57,151.93 C491.50,150.89 492.68,150.30 493.19,150.62 C493.70,150.93 493.31,151.81 492.31,152.56 C490.47,153.96 490.65,154.08 494.88,154.35 C496.20,154.43 497.77,155.29 498.38,156.25 C499.32,157.73 498.68,158.79 494.36,162.93 L 489.23 167.85 L 489.18 163.79 ZM 500.50 155.00 C500.16,154.45 500.36,154.00 500.94,154.00 C501.52,154.00 502.00,154.45 502.00,155.00 C502.00,155.55 501.80,156.00 501.56,156.00 C501.32,156.00 500.84,155.55 500.50,155.00 ZM 500.17 147.33 C499.60,144.69 499.30,142.37 499.50,142.17 C499.69,141.98 501.46,143.28 503.43,145.07 C506.99,148.31 508.12,150.57 505.75,149.71 C505.06,149.46 503.76,149.91 502.85,150.70 C501.35,152.00 501.09,151.68 500.17,147.33 ZM 211.45 146.58 C210.80,143.11 211.59,137.37 212.83,136.61 C213.20,136.38 213.50,139.30 213.50,143.10 C213.50,150.48 212.50,152.18 211.45,146.58 ZM 319.50 142.90 C319.50,139.11 319.79,136.00 320.14,136.00 C321.23,136.00 322.05,142.48 321.38,145.84 C320.29,151.32 319.50,150.10 319.50,142.90 ZM 311.55 146.66 C308.88,144.71 309.83,139.59 312.94,139.16 C314.38,138.95 315.88,139.48 316.59,140.45 C319.20,144.03 315.02,149.19 311.55,146.66 ZM 315.50 145.00 C315.84,144.45 315.16,144.00 314.00,144.00 C312.84,144.00 312.16,144.45 312.50,145.00 C312.84,145.55 313.51,146.00 314.00,146.00 C314.49,146.00 315.16,145.55 315.50,145.00 ZM 314.73 141.40 C314.40,141.06 313.53,141.03 312.81,141.32 C312.01,141.64 312.25,141.87 313.42,141.92 C314.47,141.96 315.06,141.73 314.73,141.40 ZM 216.10 141.68 C216.00,135.96 216.04,135.87 218.65,136.18 C222.39,136.63 223.90,139.35 221.73,141.75 C220.14,143.50 220.15,143.72 221.73,145.31 C223.13,146.70 223.17,147.00 221.95,147.00 C221.14,147.00 219.84,145.99 219.05,144.75 L 217.62 142.50 L 216.91 145.00 C216.41,146.77 216.17,145.80 216.10,141.68 ZM 220.46 140.07 C221.20,138.87 219.32,137.69 217.98,138.51 C216.87,139.20 217.60,141.00 219.00,141.00 C219.49,141.00 220.14,140.58 220.46,140.07 ZM 224.67 146.33 C223.58,145.25 223.91,141.49 225.20,140.20 C225.86,139.54 227.66,139.00 229.20,139.00 C231.80,139.00 232.00,139.29 232.00,143.00 C232.00,146.87 231.89,147.00 228.67,147.00 C226.83,147.00 225.03,146.70 224.67,146.33 ZM 229.82 143.17 C230.05,141.57 229.62,141.00 228.18,141.00 C225.82,141.00 224.71,143.31 226.29,144.89 C227.89,146.49 229.44,145.73 229.82,143.17 ZM 234.20 145.80 C231.48,143.08 233.61,139.00 237.76,139.00 C239.06,139.00 239.86,138.58 239.54,138.07 C239.23,137.56 239.42,136.86 239.98,136.51 C240.63,136.11 241.00,137.93 241.00,141.44 C241.00,146.86 240.93,147.00 238.20,147.00 C236.66,147.00 234.86,146.46 234.20,145.80 ZM 238.82 143.17 C239.06,141.54 238.63,141.00 237.07,141.00 C235.73,141.00 235.00,141.65 235.00,142.83 C235.00,146.63 238.27,146.92 238.82,143.17 ZM 243.31 141.50 C243.32,138.20 243.50,136.97 243.72,138.77 C243.95,140.57 243.94,143.27 243.71,144.77 C243.49,146.27 243.30,144.80 243.31,141.50 ZM 246.39 145.58 C246.10,144.81 246.04,142.89 246.28,141.33 C246.69,138.59 246.71,138.61 246.85,141.75 C246.93,143.54 247.45,145.00 248.00,145.00 C248.55,145.00 249.34,145.02 249.75,145.04 C250.16,145.06 250.76,143.60 251.08,141.79 C251.55,139.10 251.80,138.83 252.46,140.31 C253.60,142.90 251.48,147.00 248.99,147.00 C247.86,147.00 246.69,146.36 246.39,145.58 ZM 254.00 146.00 C254.00,145.45 254.76,145.00 255.69,145.00 C257.20,145.00 257.18,144.85 255.53,143.64 C254.39,142.81 253.92,141.65 254.31,140.64 C254.99,138.87 258.00,138.35 258.00,140.00 C258.00,140.55 257.48,141.00 256.85,141.00 C256.18,141.00 256.43,141.82 257.44,142.94 C258.41,144.00 258.90,145.35 258.54,145.94 C257.71,147.28 254.00,147.34 254.00,146.00 ZM 264.02 145.52 C261.85,142.91 264.28,138.78 267.76,139.18 C270.16,139.46 270.50,139.93 270.50,143.00 C270.50,146.02 270.15,146.54 267.91,146.80 C266.46,146.97 264.76,146.41 264.02,145.52 ZM 269.56 142.10 C268.55,140.47 266.03,140.77 265.32,142.60 C264.47,144.82 267.13,146.29 268.87,144.56 C269.62,143.81 269.93,142.70 269.56,142.10 ZM 272.76 143.33 C272.27,139.42 273.32,136.00 275.01,136.00 C276.12,136.00 275.27,145.09 274.05,146.33 C273.60,146.79 273.02,145.44 272.76,143.33 ZM 281.00 145.00 C279.38,141.98 281.43,138.80 284.74,139.19 C286.17,139.36 287.55,140.11 287.79,140.85 C288.14,141.90 287.80,141.96 286.22,141.12 C284.68,140.29 283.93,140.38 282.98,141.52 C281.32,143.53 283.53,146.28 286.14,145.46 C287.16,145.13 288.00,145.35 288.00,145.93 C288.00,147.91 282.14,147.13 281.00,145.00 ZM 290.71 146.38 C290.32,145.99 290.06,144.05 290.13,142.08 L 290.26 138.50 L 290.88 142.00 C291.26,144.17 292.07,145.50 293.00,145.50 C293.92,145.50 294.75,144.15 295.16,142.00 L 295.81 138.50 L 295.66 142.50 C295.53,145.70 295.09,146.56 293.46,146.79 C292.34,146.95 291.10,146.77 290.71,146.38 ZM 298.14 143.25 C298.01,139.31 298.19,139.00 300.59,139.00 C302.35,139.00 303.36,139.65 303.71,141.00 C304.00,142.10 304.60,143.00 305.05,143.00 C305.50,143.00 306.15,142.10 306.50,141.00 C306.85,139.90 307.55,139.00 308.07,139.00 C309.38,139.00 309.18,140.00 307.08,143.94 L 305.25 147.39 L 303.31 143.62 C301.79,140.64 301.14,140.12 300.28,141.17 C299.68,141.90 298.98,143.62 298.73,145.00 C298.43,146.63 298.22,146.02 298.14,143.25 ZM 243.93 129.25 C242.24,126.55 241.30,126.40 240.69,128.75 C240.39,129.90 240.15,129.55 240.00,127.75 C239.41,120.61 239.44,120.51 242.28,120.18 C245.45,119.82 246.94,122.26 245.23,125.00 C244.48,126.21 244.46,127.06 245.18,127.78 C245.76,128.36 246.02,129.43 245.78,130.16 C245.47,131.09 244.90,130.81 243.93,129.25 ZM 244.00 123.00 C244.00,122.45 243.32,122.00 242.50,122.00 C241.68,122.00 241.00,122.45 241.00,123.00 C241.00,123.55 241.68,124.00 242.50,124.00 C243.32,124.00 244.00,123.55 244.00,123.00 ZM 252.00 130.34 C252.00,129.98 253.18,128.15 254.62,126.26 C257.53,122.44 256.65,119.49 253.53,122.61 C251.87,124.27 251.80,124.26 252.16,122.43 C252.40,121.14 253.35,120.50 255.01,120.50 C258.15,120.50 258.96,124.28 256.43,127.08 C254.84,128.83 254.83,129.00 256.35,129.00 C257.26,129.00 258.00,129.45 258.00,130.00 C258.00,130.55 256.65,131.00 255.00,131.00 C253.35,131.00 252.00,130.70 252.00,130.34 ZM 260.08 129.60 C259.02,128.32 259.26,128.13 261.67,128.30 C265.13,128.54 265.67,125.67 262.25,125.18 C259.90,124.85 259.60,124.20 260.61,121.58 C261.26,119.87 266.00,119.36 266.00,121.00 C266.00,121.55 264.99,122.01 263.75,122.02 L 261.50 122.04 L 263.84 123.85 C265.42,125.06 266.07,126.44 265.84,128.07 C265.44,130.94 261.96,131.86 260.08,129.60 ZM 268.00 130.00 C268.00,129.45 268.48,129.00 269.06,129.00 C269.64,129.00 269.84,129.45 269.50,130.00 C269.16,130.55 268.68,131.00 268.44,131.00 C268.20,131.00 268.00,130.55 268.00,130.00 ZM 275.46 129.75 C275.09,128.79 273.93,128.00 272.89,128.00 C270.41,128.00 270.49,127.53 273.74,123.28 L 276.48 119.69 L 277.21 123.98 C278.01,128.69 276.71,132.99 275.46,129.75 ZM 567.01 124.58 C567.02,123.99 567.30,121.81 567.64,119.75 C568.15,116.65 568.67,116.00 570.63,116.00 C572.60,116.00 573.00,116.51 573.00,119.00 C573.00,120.65 572.60,122.00 572.12,122.00 C571.63,122.00 571.02,122.82 570.75,123.83 C570.25,125.77 566.99,126.43 567.01,124.58 ZM 572.00 118.50 C572.00,117.68 571.55,117.00 571.00,117.00 C570.45,117.00 570.00,117.68 570.00,118.50 C570.00,119.32 570.45,120.00 571.00,120.00 C571.55,120.00 572.00,119.32 572.00,118.50 ZM 575.00 125.00 C575.00,124.45 575.45,124.00 576.00,124.00 C576.55,124.00 577.00,124.45 577.00,125.00 C577.00,125.55 576.55,126.00 576.00,126.00 C575.45,126.00 575.00,125.55 575.00,125.00 ZM 580.65 123.18 C580.19,121.35 580.07,119.59 580.40,119.27 C580.72,118.95 580.51,118.12 579.94,117.43 C579.22,116.56 579.24,115.97 580.02,115.49 C581.80,114.39 582.13,115.44 581.81,121.14 C581.52,126.23 581.46,126.33 580.65,123.18 ZM 585.00 125.00 C585.00,124.45 585.45,124.00 586.00,124.00 C586.55,124.00 587.00,124.45 587.00,125.00 C587.00,125.55 586.55,126.00 586.00,126.00 C585.45,126.00 585.00,125.55 585.00,125.00 ZM 588.71 125.38 C587.40,124.07 587.98,122.74 589.37,123.89 C590.40,124.75 591.01,124.69 591.86,123.67 C593.20,122.05 592.38,121.00 589.77,121.00 C588.26,121.00 588.01,120.53 588.54,118.75 C589.53,115.50 590.62,114.64 592.68,115.47 C594.30,116.12 594.23,116.31 592.00,117.20 L 589.50 118.20 L 591.82 119.09 C594.86,120.26 594.59,125.34 591.46,125.79 C590.34,125.95 589.10,125.77 588.71,125.38 ZM 595.61 124.42 C593.63,119.26 596.40,113.51 599.83,115.66 C601.74,116.85 602.44,120.10 601.56,123.60 C600.86,126.40 596.59,126.99 595.61,124.42 ZM 600.61 119.58 C600.25,118.16 599.35,117.00 598.60,117.00 C596.75,117.00 595.86,120.87 597.15,123.28 C598.09,125.03 598.35,125.08 599.73,123.70 C600.74,122.69 601.04,121.29 600.61,119.58 ZM 518.08 102.42 C518.13,101.25 518.36,101.01 518.68,101.81 C518.97,102.53 518.94,103.40 518.60,103.73 C518.27,104.06 518.04,103.47 518.08,102.42 ZM 509.00 97.97 C509.00,94.40 509.44,92.77 510.51,92.36 C512.89,91.45 515.23,94.02 514.67,96.93 C514.41,98.33 514.61,100.27 515.13,101.24 C516.45,103.72 515.18,103.43 512.94,100.75 L 511.07 98.50 L 511.03 100.75 C511.01,101.99 510.55,103.00 510.00,103.00 C509.45,103.00 509.00,100.74 509.00,97.97 ZM 513.77 95.81 C513.15,93.96 511.00,93.65 511.00,95.42 C511.00,96.29 511.71,97.00 512.58,97.00 C513.45,97.00 513.99,96.47 513.77,95.81 ZM 522.41 99.92 C523.84,98.23 525.00,96.46 525.00,95.98 C525.00,94.38 522.78,93.73 521.94,95.09 C521.48,95.83 520.77,96.11 520.36,95.70 C519.19,94.52 522.47,91.86 524.25,92.54 C526.96,93.58 527.21,96.22 524.89,99.36 C523.16,101.70 523.05,102.20 524.35,101.70 C525.26,101.35 526.00,101.50 526.00,102.03 C526.00,102.56 524.61,103.00 522.91,103.00 L 519.82 103.00 L 522.41 99.92 ZM 528.00 102.00 C528.00,101.45 528.45,101.00 529.00,101.00 C529.55,101.00 530.00,101.45 530.00,102.00 C530.00,102.55 529.55,103.00 529.00,103.00 C528.45,103.00 528.00,102.55 528.00,102.00 ZM 533.85 98.00 C533.66,95.25 533.84,93.00 534.25,93.00 C534.66,93.00 535.00,95.25 535.00,98.00 C535.00,104.45 534.29,104.45 533.85,98.00 ZM 539.67 102.33 C539.30,101.97 539.00,101.00 539.00,100.18 C539.00,98.96 539.36,99.02 540.98,100.48 C542.73,102.07 543.03,102.09 543.56,100.71 C544.42,98.47 543.70,94.72 542.33,94.27 C541.68,94.06 540.97,94.92 540.75,96.19 C540.39,98.27 540.27,98.32 539.54,96.67 C538.51,94.35 540.98,91.67 543.33,92.57 C547.22,94.06 546.63,103.00 542.65,103.00 C541.37,103.00 540.03,102.70 539.67,102.33 ZM 547.67 102.33 C546.45,101.12 546.98,94.26 548.37,93.11 C551.59,90.43 554.93,95.16 553.59,100.50 C553.15,102.27 552.28,103.00 550.65,103.00 C549.37,103.00 548.03,102.70 547.67,102.33 ZM 551.91 99.75 C552.80,97.41 551.65,94.00 549.98,94.00 C548.41,94.00 547.68,98.90 549.01,100.51 C550.64,102.48 550.91,102.40 551.91,99.75 Z" fill="rgba(0,0,0,1)"/>
</g>
</svg>